<svg width="35" height="34" viewBox="0 0 35 34" fill="none" xmlns="http://www.w3.org/2000/svg">
<path d="M1.87652 11.4988C0.690447 12.4476 0 13.8842 0 15.4031V29C0 31.7614 2.23858 34 5 34H7.5C10.2614 34 12.5 31.7614 12.5 29V24.6667C12.5 22.0893 14.7386 20 17.5 20C20.2614 20 22.5 22.0893 22.5 24.6667V29C22.5 31.7614 24.7386 34 27.5 34H30C32.7614 34 35 31.7614 35 29V15.4031C35 13.8842 34.3096 12.4476 33.1235 11.4988L20.6235 1.49878C18.7974 0.0379043 16.2026 0.0379057 14.3765 1.49878L1.87652 11.4988Z" fill="#7389A9"/>
</svg>
