<svg width="35" height="35" viewBox="0 0 35 35" fill="none" xmlns="http://www.w3.org/2000/svg">
<path d="M20.0176 28.4883C21.7475 25.2291 27.5124 25.2291 27.5124 25.2291C33.5194 25.1664 34.3304 21.5192 34.8729 19.6758C33.9021 27.5195 27.7417 33.7546 19.9342 34.8393C19.3695 33.6508 18.7003 30.9709 20.0176 28.4883Z" fill="#D9D9D9"/>
<path d="M5.26144 6.71084L4.5409 6.09462C4.48092 6.04334 4.42357 5.9896 4.3689 5.93365C1.64971 9.01813 0 13.0681 0 17.5033C0 27.0613 7.66115 34.8298 17.1779 35.0033C16.5589 33.157 16.1558 30.1649 17.6984 27.258C19.1161 24.5859 21.9691 23.5341 23.7865 23.0873C24.7783 22.8435 25.6902 22.7246 26.3495 22.6654C26.682 22.6357 26.9574 22.6203 27.1569 22.6124C27.2567 22.6086 27.3378 22.6065 27.3973 22.6052L27.4714 22.6042H27.4907C29.9078 22.5776 30.8454 21.8643 31.2783 21.3771C31.8139 20.7743 32.0239 20.0596 32.3162 19.064L32.3541 18.9351C32.7007 17.7566 33.8081 16.9945 35 17.0535C34.8903 12.6962 33.1879 8.73441 30.4533 5.72852C30.3979 6.03954 30.332 6.32869 30.266 6.5847C29.9697 7.74263 29.4708 8.99194 28.8594 9.92C28.2614 10.8282 27.1984 11.6398 26.4913 12.1475C25.958 12.5306 25.4131 12.8489 24.9638 13.1077L24.8028 13.2006C24.3973 13.4338 24.0747 13.6196 23.7678 13.8224C23.1447 14.2341 22.7713 14.5998 22.5181 15.0951C22.6721 15.6592 22.7812 16.3075 22.783 16.9854C22.787 18.5983 21.9615 19.8727 20.9749 20.668C20.0041 21.4504 18.748 21.8927 17.4749 21.8789C12.3118 21.8225 9.28349 17.6106 8.89352 13.2704C8.78016 12.0084 8.21243 10.6487 7.41914 9.38173C6.64761 8.14958 5.7755 7.18488 5.26144 6.71084Z" fill="#D9D9D9"/>
<path d="M11.5091 13.0351C11.1814 9.38711 8.36812 5.98787 7.00242 4.74422L6.24805 4.09901C9.2911 1.5409 13.2177 0 17.5042 0C21.3782 0 24.9587 1.25864 27.8577 3.38932C28.2673 4.63291 27.4873 7.23145 26.6681 8.47509C26.3711 8.92556 25.6979 9.48477 24.9604 10.0149C23.2965 11.2102 21.1973 11.8014 20.1296 14.0023C19.8245 14.6316 19.8379 15.2464 19.9843 15.7812C20.0899 16.1653 20.157 16.5831 20.1582 16.9918C20.1617 18.3131 18.8256 19.2676 17.5042 19.2532C14.066 19.2158 11.8155 16.4449 11.5091 13.0351Z" fill="#D9D9D9"/>
</svg>
