<svg width="45" height="45" viewBox="0 0 45 45" fill="none" xmlns="http://www.w3.org/2000/svg">
<path d="M25.7361 36.6273C27.9602 32.4369 35.3722 32.4369 35.3722 32.4369C43.0955 32.3563 44.1382 27.667 44.8358 25.2969C43.5876 35.3817 35.667 43.3982 25.6288 44.7928C24.9027 43.2648 24.0423 39.8192 25.7361 36.6273Z" fill="#396D37"/>
<path d="M6.7647 8.62773L5.8383 7.83545C5.76118 7.76951 5.68745 7.70043 5.61716 7.62849C2.12105 11.5943 0 16.8013 0 22.5038C0 34.7926 9.85005 44.7807 22.0859 45.0037C21.2901 42.63 20.7717 38.783 22.755 35.0456C24.5778 31.6099 28.246 30.2577 30.5826 29.6831C31.8578 29.3697 33.0303 29.2169 33.8779 29.1408C34.3055 29.1025 34.6595 29.0827 34.9161 29.0726C35.0443 29.0677 35.1486 29.065 35.2251 29.0634L35.3204 29.062H35.3451C38.4529 29.0278 39.6584 28.1108 40.215 27.4843C40.9036 26.7093 41.1736 25.7904 41.5494 24.5104L41.5982 24.3446C42.0438 22.8294 43.4675 21.8496 45 21.9254C44.859 16.3232 42.6701 11.2295 39.1543 7.36475C39.083 7.76464 38.9982 8.1364 38.9135 8.46555C38.5324 9.95433 37.8911 11.5606 37.1049 12.7538C36.3361 13.9215 34.9693 14.9649 34.0602 15.6177C33.3746 16.1103 32.6739 16.5195 32.0963 16.8523L31.8893 16.9717C31.368 17.2716 30.9532 17.5105 30.5586 17.7712C29.7575 18.3005 29.2774 18.7706 28.9518 19.4075C29.1499 20.1328 29.2901 20.9663 29.2924 21.8379C29.2976 23.9116 28.2362 25.5501 26.9677 26.5727C25.7195 27.5786 24.1045 28.1473 22.4677 28.1295C15.8295 28.057 11.9359 22.6417 11.4345 17.0615C11.2888 15.4389 10.5588 13.6907 9.53889 12.0617C8.54692 10.4775 7.42564 9.23721 6.7647 8.62773Z" fill="#153A6F"/>
<path d="M14.7966 16.7594C14.3752 12.0691 10.7582 7.69868 9.00226 6.09972L8.03235 5.27015C11.9449 1.98116 16.9933 0 22.5045 0C27.4853 0 32.0889 1.61824 35.8162 4.3577C36.3428 5.95659 35.3399 9.29757 34.2867 10.8965C33.9049 11.4757 33.0393 12.1947 32.0911 12.8763C29.9518 14.4131 27.2528 15.1732 25.8801 18.003C25.4878 18.812 25.505 19.6026 25.6933 20.2901C25.8291 20.784 25.9153 21.3212 25.9168 21.8466C25.9213 23.5455 24.2035 24.7726 22.5045 24.7541C18.084 24.706 15.1905 21.1434 14.7966 16.7594Z" fill="#396D37"/>
</svg>
