<svg width="45" height="45" viewBox="0 0 45 45" fill="none" xmlns="http://www.w3.org/2000/svg">
<path d="M14.3201 1.24275C1.20628 6.27424 -3.5714 15.2494 2.80075 21.5716C3.48191 22.2437 4.12185 22.9074 4.73991 23.5597L8.43821 27.3541C8.81728 27.743 9.10697 28.7264 8.58657 29.1844C7.98644 29.7113 7.04706 29.3309 6.66807 28.942L5.36209 27.6006C4.46806 29.1942 4.2703 31.1302 5.30856 33.3902C7.27514 37.6748 13.8299 39.7432 18.2932 38.5357C19.2943 38.2609 21.8967 37.6522 23.9787 38.2624L29.6972 44.1082C30.8576 45.2975 32.7377 45.2975 33.8967 44.1068L44.1306 33.6071C45.2898 32.4178 45.2898 30.4876 44.1306 29.3013L37.1528 22.1408C37.2888 20.7065 37.1268 19.1565 36.5967 17.4813C32.2691 3.80146 25.2969 -2.97149 14.3201 1.24275ZM39.6699 30.1072L30.7476 39.2613L27.5971 36.0305L36.5209 26.8763L39.6699 30.1072Z" fill="#B22222"/>
</svg>
