<svg width="35" height="35" viewBox="0 0 35 35" fill="none" xmlns="http://www.w3.org/2000/svg">
<path d="M11.1378 0.96658C0.938221 4.87996 -2.77775 11.8607 2.17836 16.7779C2.70815 17.3006 3.20588 17.8168 3.68659 18.3242L6.56305 21.2754C6.85789 21.5779 7.0832 22.3428 6.67844 22.6989C6.21168 23.1088 5.48104 22.8129 5.18628 22.5104L4.17051 21.4671C3.47516 22.7066 3.32134 24.2123 4.12888 25.9701C5.65844 29.3026 10.7566 30.9114 14.228 29.9722C15.0067 29.7585 17.0308 29.2851 18.6501 29.7596L23.0978 34.3064C24.0004 35.2314 25.4627 35.2314 26.3641 34.3053L34.3238 26.1388C35.2254 25.2139 35.2254 23.7125 34.3238 22.7899L28.8966 17.2206C29.0024 16.105 28.8764 14.8995 28.4641 13.5965C25.0982 2.95669 19.6753 -2.31116 11.1378 0.96658ZM30.8544 23.4167L23.9148 30.5366L21.4644 28.0238L28.4051 20.9038L30.8544 23.4167Z" fill="#D9D9D9"/>
</svg>
