<svg width="35" height="35" viewBox="0 0 35 35" fill="none" xmlns="http://www.w3.org/2000/svg">
<path d="M34.7928 7.18375C35.005 7.89838 35.0549 8.64515 34.9394 9.37807C34.8239 10.111 34.5456 10.8145 34.1215 11.4454C33.6973 12.0763 33.1364 12.6211 32.4733 13.0463C31.8101 13.4715 31.0588 13.768 30.2655 13.9178C29.4695 14.0496 28.6522 14.0279 27.8659 13.8539C27.0797 13.6799 26.3419 13.3575 25.7 12.9075C25.0581 12.4574 24.5262 11.8896 24.1385 11.2406C23.7508 10.5915 23.5159 9.87548 23.4488 9.1385L23.3684 8.2635C23.4339 8.99354 23.3334 9.72808 23.073 10.4208C22.8125 11.1135 22.398 11.7494 21.8553 12.2884C21.3127 12.8274 20.6538 13.2577 19.9202 13.5523C19.1866 13.8469 18.3942 13.9993 17.593 14H17.436C16.6339 13.9999 15.8405 13.8476 15.1061 13.5529C14.3716 13.2582 13.7119 12.8275 13.1688 12.2879C12.6257 11.7483 12.2109 11.1116 11.9507 10.418C11.6904 9.7244 11.5903 8.989 11.6568 8.25825L11.5974 8.9145C11.5027 10.2113 10.9051 11.4348 9.91213 12.365C8.91916 13.2952 7.59587 13.8712 6.18002 13.9895C5.26849 14.0442 4.35573 13.9013 3.51606 13.5724C2.6764 13.2435 1.93357 12.738 1.34807 12.097C0.762577 11.456 0.350971 10.6976 0.146773 9.88368C-0.0574242 9.06972 -0.0484383 8.22318 0.172999 7.413L1.83842 1.32475C1.94212 0.946318 2.18117 0.610415 2.5176 0.370397C2.85402 0.130379 3.26853 1.02558e-05 3.69528 0H31.3337C31.7604 1.02558e-05 32.1749 0.130379 32.5114 0.370397C32.8478 0.610415 33.0868 0.946318 33.1905 1.32475L34.7928 7.18375ZM29.2318 17.5C30.465 17.4977 31.6862 17.2785 32.8287 16.8542V33.25C32.8287 33.7141 32.6271 34.1592 32.2681 34.4874C31.9091 34.8156 31.4222 35 30.9145 35H4.11451C3.60681 35 3.1199 34.8156 2.7609 34.4874C2.40191 34.1592 2.20022 33.7141 2.20022 33.25V16.8542C3.74143 17.4335 5.42329 17.628 7.07374 17.418C8.7242 17.208 10.284 16.601 11.5936 15.659C13.317 16.8613 15.427 17.5086 17.5949 17.5C19.7101 17.4898 21.7628 16.8428 23.4354 15.659C25.0925 16.8403 27.1304 17.4875 29.2318 17.5ZM21.3431 26.25C21.3431 25.3217 20.9397 24.4315 20.2217 23.7751C19.5037 23.1187 18.5299 22.75 17.5145 22.75C16.4991 22.75 15.5253 23.1187 14.8073 23.7751C14.0893 24.4315 13.6859 25.3217 13.6859 26.25V31.5H21.3431V26.25Z" fill="#D9D9D9"/>
</svg>
