<?xml version="1.0" encoding="UTF-8"?>
<svg version="1.1" xmlns="http://www.w3.org/2000/svg" width="604" height="208">
<path d="M0 0 C-2.96875333 15.0882522 -8.93838429 29.50403331 -22.1328125 38.4453125 C-23.71853394 39.36336176 -25.35419661 40.19460685 -27 41 C-26.35933594 41.24234375 -25.71867187 41.4846875 -25.05859375 41.734375 C-22.35420124 42.78227672 -19.67657833 43.88312617 -17 45 C-16.33613281 45.25394531 -15.67226562 45.50789063 -14.98828125 45.76953125 C-8.83513003 48.57647439 -6.86377772 54.13274808 -4 60 C-3.34 55.05 -2.68 50.1 -2 45 C11.33940978 41.66514756 34.29522901 39.64761451 47 46 C47 46.66 47 47.32 47 48 C47.7425 48.20625 48.485 48.4125 49.25 48.625 C52.79231177 50.39615589 54.02446841 52.63427951 56 56 C56.12117187 55.21753906 56.24234375 54.43507812 56.3671875 53.62890625 C56.53476563 52.61699219 56.70234375 51.60507813 56.875 50.5625 C57.03742188 49.55316406 57.19984375 48.54382813 57.3671875 47.50390625 C57.57601562 46.67761719 57.78484375 45.85132813 58 45 C61.04385183 43.47807408 64.27789667 43.57701944 67.625 43.375 C68.7078125 43.30744507 68.7078125 43.30744507 69.8125 43.23852539 C74.68111911 42.9743325 79.19118214 43.09834665 84 44 C84.94884121 50.89698676 84.99864738 57.43389637 84.66015625 64.37890625 C84.61434921 65.43158188 84.56854218 66.48425751 84.52134705 67.5688324 C84.37489288 70.90038225 84.21885228 74.2314015 84.0625 77.5625 C83.96095255 79.83395603 83.86003475 82.10544031 83.75976562 84.37695312 C83.51379086 89.91831616 83.25996361 95.45927654 83 101 C83.94456055 100.84152588 84.88912109 100.68305176 85.86230469 100.51977539 C93.27845392 99.29125207 100.48311743 98.85876421 108 99 C108.94547715 93.47444811 109.10366495 88.19157924 109.02734375 82.59375 C109.0147014 80.7799498 109.00234015 78.96614761 108.99023438 77.15234375 C108.96542152 74.32171313 108.9373962 71.49118799 108.90405273 68.66064453 C108.87372494 65.90917314 108.85604302 63.15783586 108.83984375 60.40625 C108.81965431 59.14814514 108.81965431 59.14814514 108.79905701 57.86462402 C108.79398888 56.66803162 108.79398888 56.66803162 108.78881836 55.44726562 C108.78136093 54.75556274 108.7739035 54.06385986 108.76622009 53.35119629 C109 51 109 51 111 44 C128.49 44 145.98 44 164 44 C165.00695328 48.02781313 165.15204981 51.64175111 165.125 55.75 C165.12234131 56.46357666 165.11968262 57.17715332 165.11694336 57.91235352 C164.99889203 71.00110797 164.99889203 71.00110797 163 73 C161.00041636 73.04080783 158.99954746 73.04254356 157 73 C157.33 73.99 157.66 74.98 158 76 C158.08209792 77.77313851 158.10746294 79.54920775 158.09765625 81.32421875 C158.09443359 82.35224609 158.09121094 83.38027344 158.08789062 84.43945312 C158.07951172 85.51130859 158.07113281 86.58316406 158.0625 87.6875 C158.05798828 88.77095703 158.05347656 89.85441406 158.04882812 90.97070312 C158.03703743 93.64719085 158.02058063 96.32356777 158 99 C159.65 99 161.3 99 163 99 C163.66 104.28 164.32 109.56 165 115 C170.69587239 94.25544076 170.69587239 94.25544076 175.62524414 73.32080078 C176.86461134 67.51771128 178.25193916 61.7576079 179.6875 56 C179.90237061 55.13165527 180.11724121 54.26331055 180.33862305 53.36865234 C180.54011963 52.56637207 180.74161621 51.7640918 180.94921875 50.9375 C181.21738403 49.86822266 181.21738403 49.86822266 181.4909668 48.77734375 C182 47 182 47 183 45 C193.6787433 43.02452567 205.18825122 43.90298531 216 44 C217.98069344 47.43711679 218.65522979 50.73618696 219.375 54.62109375 C219.63243873 55.97151196 219.89162971 57.32159702 220.15234375 58.67138672 C220.28882324 59.37898132 220.42530273 60.08657593 220.56591797 60.81561279 C221.2991984 64.50562594 222.11692686 68.17622846 222.9375 71.84765625 C223.10548096 72.60082123 223.27346191 73.35398621 223.4465332 74.12997437 C223.9630538 76.44110987 224.48138332 78.75183404 225 81.0625 C225.68835496 84.13652795 226.37572327 87.21077534 227.0625 90.28515625 C227.30939575 91.38967636 227.30939575 91.38967636 227.5612793 92.51651001 C229.082051 99.33561619 230.55085903 106.16529679 232 113 C232.02505615 112.14583496 232.0501123 111.29166992 232.07592773 110.41162109 C232.194664 106.39935828 232.31530143 102.38715872 232.4375 98.375 C232.45956512 97.65014404 232.48163025 96.92528809 232.50436401 96.1784668 C232.81431206 86.08229713 233.17993897 75.99199638 233.69506836 65.90380859 C233.88282031 62.13592538 234.01230679 58.3978802 233.96484375 54.625 C234.00027977 50.9711531 234.65108947 48.37227632 236 45 C243.87638182 43.89140596 251.71747766 43.78028083 259.65600586 43.75976562 C261.92924267 43.75003534 264.20158262 43.71891642 266.47460938 43.6875 C283.89923601 43.55802105 283.89923601 43.55802105 291.40234375 48.62109375 C297.08136062 55.34054119 299.36546456 62.42001511 298.83203125 71.22265625 C297.77932071 82.3981612 297.77932071 82.3981612 294 86 C293.50005813 89.84132554 294.41460107 92.55603876 295.9375 96.0625 C297.94183972 100.72492466 299.18499597 104.4030701 298.9140625 109.51171875 C298.84832031 110.77145508 298.84832031 110.77145508 298.78125 112.05664062 C298.7296875 112.92482422 298.678125 113.79300781 298.625 114.6875 C298.58117187 115.56728516 298.53734375 116.44707031 298.4921875 117.35351562 C298.13046556 123.86953444 298.13046556 123.86953444 297 125 C293.38194129 125.25201884 289.7507992 125.18522535 286.125 125.1875 C285.10535156 125.19974609 284.08570313 125.21199219 283.03515625 125.22460938 C282.05675781 125.22654297 281.07835937 125.22847656 280.0703125 125.23046875 C279.17070801 125.23457764 278.27110352 125.23868652 277.34423828 125.24291992 C275 125 275 125 272 123 C270.66515095 118.84376547 270.91678103 114.56906473 271 110.25 C271.04563954 107.82654061 271.04731552 105.42492024 271 103 C269.94021067 101.71387324 269.94021067 101.71387324 267.49609375 101.90234375 C266.48675781 101.91394531 265.47742188 101.92554688 264.4375 101.9375 C263.42558594 101.94652344 262.41367187 101.95554687 261.37109375 101.96484375 C260.58863281 101.97644531 259.80617188 101.98804688 259 102 C259.01047363 102.59014893 259.02094727 103.18029785 259.03173828 103.78833008 C259.07332044 106.46301004 259.0993329 109.13762197 259.125 111.8125 C259.14175781 112.74126953 259.15851563 113.67003906 259.17578125 114.62695312 C259.18222656 115.51962891 259.18867188 116.41230469 259.1953125 117.33203125 C259.20578613 118.15421143 259.21625977 118.9763916 259.22705078 119.82348633 C259 122 259 122 257 125 C254.93722534 125.36076355 254.93722534 125.36076355 252.36669922 125.34057617 C251.40585419 125.34034958 250.44500916 125.34012299 249.45504761 125.33988953 C248.41542877 125.32440567 247.37580994 125.30892181 246.3046875 125.29296875 C245.24210724 125.28872391 244.17952698 125.28447906 243.08474731 125.28010559 C239.68124354 125.26327389 236.27832567 125.22561303 232.875 125.1875 C230.57162312 125.17245899 228.26823698 125.15876958 225.96484375 125.14648438 C220.30969495 125.11335574 214.65488932 125.06311197 209 125 C208.516941 123.60550891 208.03874483 122.20933293 207.5625 120.8125 C207.29566406 120.03519531 207.02882813 119.25789063 206.75390625 118.45703125 C206.00486577 116.01585787 205.50078358 113.50391792 205 111 C199.06 111.495 199.06 111.495 193 112 C192.2884375 114.6915625 192.2884375 114.6915625 191.5625 117.4375 C190.125 122.875 190.125 122.875 189 124 C181.35981363 124.93341643 173.68780813 125.13357196 166 125 C165.01 125 164.02 125 163 125 C144.66666667 125 126.33333333 125 108 125 C106.42830269 125.00487477 104.85660684 125.01022576 103.28491211 125.01586914 C97.98185799 125.03380519 92.67880783 125.04539991 87.37573242 125.05493164 C85.08178248 125.05998116 82.78783579 125.0668199 80.49389648 125.07543945 C77.19253753 125.08752193 73.89122072 125.09323045 70.58984375 125.09765625 C69.55963608 125.10281754 68.52942841 125.10797882 67.46800232 125.11329651 C66.51684036 125.11337204 65.56567841 125.11344757 64.58569336 125.11352539 C63.74646835 125.115746 62.90724335 125.11796661 62.04258728 125.12025452 C60 125 60 125 58 124 C57.58935547 121.04077148 57.58935547 121.04077148 57.3671875 117.12109375 C57.30484421 116.09110008 57.30484421 116.09110008 57.24124146 115.04029846 C57.11013585 112.83978482 56.99243364 110.63878157 56.875 108.4375 C56.78863992 106.94851644 56.70141167 105.45958295 56.61328125 103.97070312 C56.39876462 100.3143304 56.19626474 96.65740292 56 93 C55.37456299 93.95229492 54.74912598 94.90458984 54.10473633 95.88574219 C50.84504295 100.70892381 47.26362472 103.9836787 41.9375 106.375 C35.96528692 107.32297033 30.03300434 107.15061592 24 107 C24.01160156 108.05960937 24.02320313 109.11921875 24.03515625 110.2109375 C24.04453476 111.59895658 24.05363489 112.98697755 24.0625 114.375 C24.07087891 115.07367188 24.07925781 115.77234375 24.08789062 116.4921875 C24.11328125 121.7734375 24.11328125 121.7734375 23 124 C19.37501666 124.02893932 15.75006287 124.04677792 12.125 124.0625 C10.57619141 124.07506836 10.57619141 124.07506836 8.99609375 124.08789062 C8.00996094 124.09111328 7.02382812 124.09433594 6.0078125 124.09765625 C5.09660645 124.10289307 4.18540039 124.10812988 3.24658203 124.11352539 C1 124 1 124 -1 123 C-2.12828381 118.97254984 -2.29041811 114.84646603 -2.5625 110.6875 C-2.64628906 109.43324219 -2.73007813 108.17898437 -2.81640625 106.88671875 C-2.87699219 105.93410156 -2.93757812 104.98148437 -3 104 C-3.47179687 105.44632813 -3.47179687 105.44632813 -3.953125 106.921875 C-4.38479815 108.19812604 -4.81712445 109.47415629 -5.25 110.75 C-5.45496094 111.38421875 -5.65992188 112.0184375 -5.87109375 112.671875 C-7.75935992 118.16501296 -9.96481835 120.9201077 -15.0625 123.625 C-26.81822391 128.21198822 -40.2918024 128.55134434 -52.125 124.22265625 C-58.79328606 121.28002244 -62.68512701 117.00035969 -65.59375 110.36328125 C-67.23341259 105.78110903 -67.76758067 101.26464607 -68.1875 96.4375 C-68.26935547 95.62603516 -68.35121094 94.81457031 -68.43554688 93.97851562 C-69.60406387 81.81219161 -69.60406387 81.81219161 -68 77 C-72.95 77 -77.9 77 -83 77 C-82.84402344 79.01480469 -82.68804687 81.02960938 -82.52734375 83.10546875 C-82.38105959 85.1046856 -82.23485039 87.10390858 -82.09057617 89.10327148 C-81.9902157 90.46974252 -81.88649308 91.83597169 -81.77905273 93.2019043 C-80.9793222 103.41067112 -80.1921572 114.01573315 -83 124 C-87.29161047 124.05783842 -91.58312145 124.0935412 -95.875 124.125 C-97.09832031 124.14175781 -98.32164063 124.15851563 -99.58203125 124.17578125 C-101.33193359 124.18544922 -101.33193359 124.18544922 -103.1171875 124.1953125 C-104.19597168 124.20578613 -105.27475586 124.21625977 -106.38623047 124.22705078 C-109 124 -109 124 -111 122 C-113.0840969 107.2540314 -112.09440571 91.84267608 -112 77 C-117.94 77 -123.88 77 -130 77 C-131.66637622 72.00087135 -131.1845647 66.79613749 -131.1875 61.5625 C-131.19974609 60.41716797 -131.21199219 59.27183594 -131.22460938 58.09179688 C-131.22654297 56.99029297 -131.22847656 55.88878906 -131.23046875 54.75390625 C-131.23457764 53.74658447 -131.23868652 52.7392627 -131.24291992 51.70141602 C-130.99053569 48.89475122 -130.65350067 47.27883168 -129 45 C-125.81689672 43.90626775 -122.75060389 43.84741943 -119.40527344 43.79467773 C-118.28441345 43.77473251 -117.16355347 43.75478729 -116.00872803 43.73423767 C-114.80444153 43.71752518 -113.60015503 43.70081268 -112.359375 43.68359375 C-111.12205627 43.66281265 -109.88473755 43.64203156 -108.60992432 43.62062073 C-105.32861309 43.56634128 -102.04727267 43.51608221 -98.76586914 43.46777344 C-95.41416896 43.41743908 -92.0625628 43.3617364 -88.7109375 43.30664062 C-82.14069321 43.19955487 -75.57038199 43.09825874 -69 43 C-68.34 48.28 -67.68 53.56 -67 59 C-65.6696875 56.89625 -65.6696875 56.89625 -64.3125 54.75 C-59.65274999 47.83623138 -54.98662759 45.00987979 -47 43 C-44.32502857 42.53940889 -41.70687058 42.24607914 -39 42 C-39.06832031 41.04351562 -39.13664062 40.08703125 -39.20703125 39.1015625 C-39.20329396 34.15089742 -37.45915537 29.93781465 -35.6875 25.375 C-35.37876953 24.54226562 -35.07003906 23.70953125 -34.75195312 22.8515625 C-31.64049237 14.62420521 -31.64049237 14.62420521 -29 11 C-28.34 11 -27.68 11 -27 11 C-27 10.34 -27 9.68 -27 9 C-24.7941576 7.86988348 -22.58554973 6.74584212 -20.375 5.625 C-19.75753906 5.30789062 -19.14007813 4.99078125 -18.50390625 4.6640625 C-12.26840313 1.5134925 -7.11044962 -0.28441798 0 0 Z M260 70 C258.59780665 74.20658005 258.44747365 78.0912726 259.6875 82.375 C260.93867971 84.19273541 260.93867971 84.19273541 263.3125 84.9375 C266.5873734 85.25310801 266.5873734 85.25310801 271 82 C270.67 78.04 270.34 74.08 270 70 C266.7 70 263.4 70 260 70 Z M22 72 C21.91878076 73.60332791 21.86070866 75.20784026 21.8125 76.8125 C21.77769531 77.70582031 21.74289063 78.59914063 21.70703125 79.51953125 C21.80309727 82.02745573 21.80309727 82.02745573 23.28125 83.8125 C26.03993273 85.71849898 28.7571522 85.18355742 32 85 C33.96994636 80.24895289 34.08312062 77.02174105 33 72 C31.83752049 70.61070346 31.83752049 70.61070346 28.625 70.875 C25.04677028 70.82699539 25.04677028 70.82699539 22 72 Z M134 74 C134 75.32 134 76.64 134 78 C140.40353322 78.2361959 145.84629161 77.823321 152 76 C152 75.34 152 74.68 152 74 C145.78675502 73.26969092 140.15901243 72.76819751 134 74 Z M-42 78 C-43.25390353 86.94677114 -44.20651494 99.58697012 -40 108 C-38.10466658 108.46523063 -38.10466658 108.46523063 -35.9375 108.625 C-33.9884375 108.810625 -33.9884375 108.810625 -32 109 C-28.68025378 105.50129172 -28.38840531 102.06049406 -28.1875 97.4375 C-28.13505127 96.37764893 -28.13505127 96.37764893 -28.08154297 95.29638672 C-27.70620227 86.42111119 -27.70620227 86.42111119 -30 78 C-34.50748006 75.42001141 -37.21373857 76.31073126 -42 78 Z M198 80 C197.49645133 82.43681587 196.99703244 84.87435439 196.5 87.3125 C196.35691406 88.00279297 196.21382813 88.69308594 196.06640625 89.40429688 C195.47374956 92.32524773 195 95.01108122 195 98 C197.3260857 98.38063221 199.66055264 98.71269945 202 99 C203.69455034 97.30544966 203.17173578 95.1891874 203.1875 92.875 C203.15688893 88.17926157 202.56759047 84.40884818 201 80 C200.01 80 199.02 80 198 80 Z M57 87 C58 90 58 90 58 90 Z " fill="#C0C0C0" transform="translate(146,34)"/>
<path d="M0 0 C-2.96875333 15.0882522 -8.93838429 29.50403331 -22.1328125 38.4453125 C-23.71853394 39.36336176 -25.35419661 40.19460685 -27 41 C-26.35933594 41.24234375 -25.71867187 41.4846875 -25.05859375 41.734375 C-22.35420124 42.78227672 -19.67657833 43.88312617 -17 45 C-16.33613281 45.25394531 -15.67226562 45.50789063 -14.98828125 45.76953125 C-8.958637 48.52013301 -6.56196243 54.15391124 -4 60 C-2.64272457 63.80835519 -2.92409298 67.69858603 -3 71.6875 C-3.04572975 74.13175518 -3.04720348 76.55426954 -3 79 C-2.67 79.33 -2.34 79.66 -2 80 C-0.83823824 92.25438074 -0.67503799 104.17089837 -7 115 C-7.35964844 115.72703125 -7.71929687 116.4540625 -8.08984375 117.203125 C-10.06286316 121.09835645 -12.83005063 122.69634374 -16.859375 124.3046875 C-29.04164023 128.26170066 -42.37872485 128.52356934 -54.1875 123.3125 C-60.55481168 119.87516641 -63.93360682 115.00268815 -66.35083008 108.24755859 C-67.4725949 104.36378013 -67.83814298 100.45350312 -68.1875 96.4375 C-68.26935547 95.62603516 -68.35121094 94.81457031 -68.43554688 93.97851562 C-69.60406387 81.81219161 -69.60406387 81.81219161 -68 77 C-72.95 77 -77.9 77 -83 77 C-82.84402344 79.01480469 -82.68804687 81.02960938 -82.52734375 83.10546875 C-82.38105959 85.1046856 -82.23485039 87.10390858 -82.09057617 89.10327148 C-81.9902157 90.46974252 -81.88649308 91.83597169 -81.77905273 93.2019043 C-80.9793222 103.41067112 -80.1921572 114.01573315 -83 124 C-87.29161047 124.05783842 -91.58312145 124.0935412 -95.875 124.125 C-97.09832031 124.14175781 -98.32164063 124.15851563 -99.58203125 124.17578125 C-101.33193359 124.18544922 -101.33193359 124.18544922 -103.1171875 124.1953125 C-104.19597168 124.20578613 -105.27475586 124.21625977 -106.38623047 124.22705078 C-109 124 -109 124 -111 122 C-113.0840969 107.2540314 -112.09440571 91.84267608 -112 77 C-117.94 77 -123.88 77 -130 77 C-131.66637622 72.00087135 -131.1845647 66.79613749 -131.1875 61.5625 C-131.19974609 60.41716797 -131.21199219 59.27183594 -131.22460938 58.09179688 C-131.22654297 56.99029297 -131.22847656 55.88878906 -131.23046875 54.75390625 C-131.23457764 53.74658447 -131.23868652 52.7392627 -131.24291992 51.70141602 C-130.99053569 48.89475122 -130.65350067 47.27883168 -129 45 C-125.81689672 43.90626775 -122.75060389 43.84741943 -119.40527344 43.79467773 C-118.28441345 43.77473251 -117.16355347 43.75478729 -116.00872803 43.73423767 C-114.80444153 43.71752518 -113.60015503 43.70081268 -112.359375 43.68359375 C-111.12205627 43.66281265 -109.88473755 43.64203156 -108.60992432 43.62062073 C-105.32861309 43.56634128 -102.04727267 43.51608221 -98.76586914 43.46777344 C-95.41416896 43.41743908 -92.0625628 43.3617364 -88.7109375 43.30664062 C-82.14069321 43.19955487 -75.57038199 43.09825874 -69 43 C-68.34 48.28 -67.68 53.56 -67 59 C-65.6696875 56.89625 -65.6696875 56.89625 -64.3125 54.75 C-59.65274999 47.83623138 -54.98662759 45.00987979 -47 43 C-44.32502857 42.53940889 -41.70687058 42.24607914 -39 42 C-39.06832031 41.04351562 -39.13664062 40.08703125 -39.20703125 39.1015625 C-39.20329396 34.15089742 -37.45915537 29.93781465 -35.6875 25.375 C-35.37876953 24.54226562 -35.07003906 23.70953125 -34.75195312 22.8515625 C-31.64049237 14.62420521 -31.64049237 14.62420521 -29 11 C-28.34 11 -27.68 11 -27 11 C-27 10.34 -27 9.68 -27 9 C-24.7941576 7.86988348 -22.58554973 6.74584212 -20.375 5.625 C-19.75753906 5.30789062 -19.14007813 4.99078125 -18.50390625 4.6640625 C-12.26840313 1.5134925 -7.11044962 -0.28441798 0 0 Z M-42 78 C-43.25390353 86.94677114 -44.20651494 99.58697012 -40 108 C-38.10466658 108.46523063 -38.10466658 108.46523063 -35.9375 108.625 C-33.9884375 108.810625 -33.9884375 108.810625 -32 109 C-28.68025378 105.50129172 -28.38840531 102.06049406 -28.1875 97.4375 C-28.13505127 96.37764893 -28.13505127 96.37764893 -28.08154297 95.29638672 C-27.70620227 86.42111119 -27.70620227 86.42111119 -30 78 C-34.50748006 75.42001141 -37.21373857 76.31073126 -42 78 Z " fill="#BCBCBC" transform="translate(146,34)"/>
<path d="M0 0 C1.98069344 3.43711679 2.65522979 6.73618696 3.375 10.62109375 C3.63243873 11.97151196 3.89162971 13.32159702 4.15234375 14.67138672 C4.28882324 15.37898132 4.42530273 16.08657593 4.56591797 16.81561279 C5.2991984 20.50562594 6.11692686 24.17622846 6.9375 27.84765625 C7.10548096 28.60082123 7.27346191 29.35398621 7.4465332 30.12997437 C7.9630538 32.44110987 8.48138332 34.75183404 9 37.0625 C9.68835496 40.13652795 10.37572327 43.21077534 11.0625 46.28515625 C11.30939575 47.38967636 11.30939575 47.38967636 11.5612793 48.51651001 C13.082051 55.33561619 14.55085903 62.16529679 16 69 C16.03758423 67.71875244 16.03758423 67.71875244 16.07592773 66.41162109 C16.194664 62.39935828 16.31530143 58.38715872 16.4375 54.375 C16.45956512 53.65014404 16.48163025 52.92528809 16.50436401 52.1784668 C16.81431206 42.08229713 17.17993897 31.99199638 17.69506836 21.90380859 C17.88282031 18.13592538 18.01230679 14.3978802 17.96484375 10.625 C18.00027977 6.9711531 18.65108947 4.37227632 20 1 C27.87638182 -0.10859404 35.71747766 -0.21971917 43.65600586 -0.24023438 C45.92924267 -0.24996466 48.20158262 -0.28108358 50.47460938 -0.3125 C67.89923601 -0.44197895 67.89923601 -0.44197895 75.40234375 4.62109375 C81.08136062 11.34054119 83.36546456 18.42001511 82.83203125 27.22265625 C81.77932071 38.3981612 81.77932071 38.3981612 78 42 C77.50005813 45.84132554 78.41460107 48.55603876 79.9375 52.0625 C81.94183972 56.72492466 83.18499597 60.4030701 82.9140625 65.51171875 C82.84832031 66.77145508 82.84832031 66.77145508 82.78125 68.05664062 C82.7296875 68.92482422 82.678125 69.79300781 82.625 70.6875 C82.58117187 71.56728516 82.53734375 72.44707031 82.4921875 73.35351562 C82.13046556 79.86953444 82.13046556 79.86953444 81 81 C77.38194129 81.25201884 73.7507992 81.18522535 70.125 81.1875 C69.10535156 81.19974609 68.08570313 81.21199219 67.03515625 81.22460938 C66.05675781 81.22654297 65.07835937 81.22847656 64.0703125 81.23046875 C63.17070801 81.23457764 62.27110352 81.23868652 61.34423828 81.24291992 C59 81 59 81 56 79 C54.66515095 74.84376547 54.91678103 70.56906473 55 66.25 C55.04563954 63.82654061 55.04731552 61.42492024 55 59 C53.94021067 57.71387324 53.94021067 57.71387324 51.49609375 57.90234375 C50.48675781 57.91394531 49.47742188 57.92554688 48.4375 57.9375 C46.91962891 57.95103516 46.91962891 57.95103516 45.37109375 57.96484375 C44.19740234 57.98224609 44.19740234 57.98224609 43 58 C43.01047363 58.59014893 43.02094727 59.18029785 43.03173828 59.78833008 C43.07332044 62.46301004 43.0993329 65.13762197 43.125 67.8125 C43.14175781 68.74126953 43.15851563 69.67003906 43.17578125 70.62695312 C43.18222656 71.51962891 43.18867188 72.41230469 43.1953125 73.33203125 C43.20578613 74.15421143 43.21625977 74.9763916 43.22705078 75.82348633 C43 78 43 78 41 81 C38.93722534 81.36076355 38.93722534 81.36076355 36.36669922 81.34057617 C35.40585419 81.34034958 34.44500916 81.34012299 33.45504761 81.33988953 C32.41542877 81.32440567 31.37580994 81.30892181 30.3046875 81.29296875 C29.24210724 81.28872391 28.17952698 81.28447906 27.08474731 81.28010559 C23.68124354 81.26327389 20.27832567 81.22561303 16.875 81.1875 C14.57162312 81.17245899 12.26823698 81.15876958 9.96484375 81.14648438 C4.30969495 81.11335574 -1.34511068 81.06311197 -7 81 C-7.483059 79.60550891 -7.96125517 78.20933293 -8.4375 76.8125 C-8.70433594 76.03519531 -8.97117187 75.25789063 -9.24609375 74.45703125 C-9.99513423 72.01585787 -10.49921642 69.50391792 -11 67 C-16.94 67.495 -16.94 67.495 -23 68 C-23.474375 69.794375 -23.94875 71.58875 -24.4375 73.4375 C-25.875 78.875 -25.875 78.875 -27 80 C-47.70554493 82.52963671 -47.70554493 82.52963671 -53 79 C-53.1875 75.375 -53.1875 75.375 -53 72 C-52.01 71.505 -52.01 71.505 -51 71 C-50.02292759 68.29793569 -50.02292759 68.29793569 -49.1953125 64.97265625 C-48.86120361 63.71437012 -48.52709473 62.45608398 -48.18286133 61.15966797 C-47.82981072 59.79405645 -47.47719918 58.42833135 -47.125 57.0625 C-46.76160528 55.67586708 -46.39791631 54.28931124 -46.03393555 52.90283203 C-43.99126257 45.07589315 -42.06191532 37.23228687 -40.37426758 29.32055664 C-39.13610624 23.51732419 -37.74802989 17.75748376 -36.3125 12 C-36.09762939 11.13165527 -35.88275879 10.26331055 -35.66137695 9.36865234 C-35.35913208 8.16523193 -35.35913208 8.16523193 -35.05078125 6.9375 C-34.87200439 6.22464844 -34.69322754 5.51179688 -34.5090332 4.77734375 C-34 3 -34 3 -33 1 C-22.3212567 -0.97547433 -10.81174878 -0.09701469 0 0 Z M44 26 C42.59780665 30.20658005 42.44747365 34.0912726 43.6875 38.375 C44.93867971 40.19273541 44.93867971 40.19273541 47.3125 40.9375 C50.5873734 41.25310801 50.5873734 41.25310801 55 38 C54.67 34.04 54.34 30.08 54 26 C50.7 26 47.4 26 44 26 Z M-18 36 C-18.50354867 38.43681587 -19.00296756 40.87435439 -19.5 43.3125 C-19.64308594 44.00279297 -19.78617187 44.69308594 -19.93359375 45.40429688 C-20.52625044 48.32524773 -21 51.01108122 -21 54 C-18.6739143 54.38063221 -16.33944736 54.71269945 -14 55 C-12.30544966 53.30544966 -12.82826422 51.1891874 -12.8125 48.875 C-12.84311107 44.17926157 -13.43240953 40.40884818 -15 36 C-15.99 36 -16.98 36 -18 36 Z " fill="#C0C0C0" transform="translate(362,78)"/>
<path d="M0 0 C0.84388779 -0.00817749 1.68777557 -0.01635498 2.55723572 -0.02478027 C5.36188027 -0.04968105 8.16647411 -0.06616108 10.97119141 -0.08056641 C12.4039485 -0.08855192 12.4039485 -0.08855192 13.86565018 -0.09669876 C18.92002817 -0.12344916 23.97438128 -0.14281905 29.02880859 -0.15722656 C34.26049358 -0.17389024 39.49155052 -0.21867691 44.72299767 -0.26959801 C48.73608153 -0.30318488 52.74901471 -0.31479453 56.7622261 -0.32045364 C58.69122754 -0.32718859 60.62021829 -0.34246844 62.54908371 -0.36634445 C65.24548914 -0.39781986 67.94017932 -0.39805988 70.63671875 -0.390625 C71.43787613 -0.40703033 72.23903351 -0.42343567 73.06446838 -0.44033813 C75.29086304 -0.41513062 75.29086304 -0.41513062 78.94775391 0.19287109 C82.35242629 4.14093129 82.29888994 7.52805824 82.19775391 12.63037109 C82.18131836 13.66967773 82.18131836 13.66967773 82.16455078 14.72998047 C82.0214649 21.56699705 81.54376471 28.38131902 80.94775391 35.19287109 C83.25775391 35.19287109 85.56775391 35.19287109 87.94775391 35.19287109 C87.61775391 34.53287109 87.28775391 33.87287109 86.94775391 33.19287109 C86.85017964 31.05010339 86.81698245 28.90426453 86.81494141 26.75927734 C86.81365234 25.47085938 86.81236328 24.18244141 86.81103516 22.85498047 C86.81312988 22.18233154 86.81522461 21.50968262 86.81738281 20.81665039 C86.82272399 18.76685145 86.81743845 16.7172725 86.81103516 14.66748047 C86.81232422 13.37777344 86.81361328 12.08806641 86.81494141 10.75927734 C86.81606934 9.57277588 86.81719727 8.38627441 86.81835938 7.16381836 C86.94775391 4.19287109 86.94775391 4.19287109 87.94775391 1.19287109 C92.86163987 -0.4450909 97.87831126 0.24629059 103.01025391 0.44287109 C104.12464844 0.46994141 105.23904297 0.49701172 106.38720703 0.52490234 C107.45003906 0.56486328 108.51287109 0.60482422 109.60791016 0.64599609 C110.58381104 0.67854492 111.55971191 0.71109375 112.56518555 0.74462891 C113.35143311 0.89254883 114.13768066 1.04046875 114.94775391 1.19287109 C120.24898981 9.14472494 116.63716945 23.92872873 115.85400391 33.12255859 C115.74140615 34.49256386 115.62931501 35.86261084 115.5177002 37.23269653 C115.22679388 40.78723349 114.92914846 44.34117277 114.62994385 47.89501953 C114.32413935 51.54213519 114.02492161 55.18979104 113.72509766 58.83740234 C113.13898175 65.95642435 112.54572247 73.07483402 111.94775391 80.19287109 C107.50867956 81.67256254 103.1609703 81.45845734 98.51025391 81.50537109 C97.07842773 81.54887695 97.07842773 81.54887695 95.61767578 81.59326172 C88.7904754 81.65537061 88.7904754 81.65537061 85.30712891 79.74365234 C83.2498915 75.8833764 83.48237874 72.36875901 83.63525391 68.06787109 C83.64492188 67.24416016 83.65458984 66.42044922 83.66455078 65.57177734 C83.77823063 59.53191765 83.77823063 59.53191765 84.94775391 57.19287109 C82.96775391 57.52287109 80.98775391 57.85287109 78.94775391 58.19287109 C78.87427734 59.80355469 78.87427734 59.80355469 78.79931641 61.44677734 C78.72421993 62.88299751 78.64867515 64.31919429 78.57275391 65.75537109 C78.54181641 66.45984375 78.51087891 67.16431641 78.47900391 67.89013672 C78.21822832 72.60582851 77.40117267 76.69672605 75.94775391 81.19287109 C67.55770675 81.32892591 59.30395347 80.9476246 50.94775391 80.19287109 C48.04612553 74.54406114 47.62480649 70.47183289 48.09228516 64.19677734 C48.14092209 63.36323227 48.18955902 62.52968719 48.2396698 61.67088318 C48.3973314 59.03111603 48.57840046 56.39357077 48.76025391 53.75537109 C48.87183458 51.95663873 48.98187643 50.15781021 49.09033203 48.35888672 C49.35835192 43.96890222 49.64736169 39.58075446 49.94775391 35.19287109 C45.65775391 34.86287109 41.36775391 34.53287109 36.94775391 34.19287109 C36.96837891 36.31853516 36.98900391 38.44419922 37.01025391 40.63427734 C37.04048221 49.1606655 36.5275267 57.62736098 35.94775391 66.13037109 C35.8509538 67.60364915 35.75459774 69.07695646 35.65869141 70.55029297 C35.42680043 74.09816894 35.1890069 77.64561791 34.94775391 81.19287109 C30.67697735 81.25081922 26.40630154 81.28644983 22.13525391 81.31787109 C20.9203125 81.33462891 19.70537109 81.35138672 18.45361328 81.36865234 C17.29023438 81.37509766 16.12685547 81.38154297 14.92822266 81.38818359 C13.31790161 81.40389404 13.31790161 81.40389404 11.67504883 81.41992188 C8.94775391 81.19287109 8.94775391 81.19287109 5.94775391 79.19287109 C5.59130859 77.23193359 5.59130859 77.23193359 5.61962891 74.81787109 C5.62406006 73.92310059 5.62849121 73.02833008 5.63305664 72.10644531 C5.65440674 71.14496582 5.67575684 70.18348633 5.69775391 69.19287109 C5.70943604 68.21205566 5.72111816 67.23124023 5.7331543 66.22070312 C6.09799678 42.59189961 6.09799678 42.59189961 7.94775391 35.19287109 C2.66775391 34.86287109 -2.61224609 34.53287109 -8.05224609 34.19287109 C-12.05885515 24.17634846 -10.30835944 11.78454291 -9.05224609 1.19287109 C-7.01812918 -0.84124582 -2.79482047 0.01478602 0 0 Z " fill="#BBBBBB" transform="translate(456.05224609375,77.80712890625)"/>
<path d="M0 0 C1.98069344 3.43711679 2.65522979 6.73618696 3.375 10.62109375 C3.63243873 11.97151196 3.89162971 13.32159702 4.15234375 14.67138672 C4.28882324 15.37898132 4.42530273 16.08657593 4.56591797 16.81561279 C5.2991984 20.50562594 6.11692686 24.17622846 6.9375 27.84765625 C7.10548096 28.60082123 7.27346191 29.35398621 7.4465332 30.12997437 C7.9630538 32.44110987 8.48138332 34.75183404 9 37.0625 C9.68835496 40.13652795 10.37572327 43.21077534 11.0625 46.28515625 C11.30939575 47.38967636 11.30939575 47.38967636 11.5612793 48.51651001 C13.082051 55.33561619 14.55085903 62.16529679 16 69 C16.03758423 67.71875244 16.03758423 67.71875244 16.07592773 66.41162109 C16.30336467 58.72621247 16.54208457 51.04128972 16.79589844 43.35670471 C16.94109478 38.93213618 17.06739379 34.50747714 17.18359375 30.08203125 C17.2465764 28.11716106 17.31031682 26.15231494 17.375 24.1875 C17.39361084 23.2888623 17.41222168 22.39022461 17.43139648 21.46435547 C17.46177002 20.64467285 17.49214355 19.82499023 17.5234375 18.98046875 C17.54325684 18.27817139 17.56307617 17.57587402 17.58349609 16.85229492 C18.11556265 14.4860646 19.18207981 13.54713401 21 12 C21.11542835 34.69321348 21.01871708 57.32541682 20 80 C14.36473035 81.20484722 8.85463885 81.1129643 3.125 81.0625 C2.15046875 81.05798828 1.1759375 81.05347656 0.171875 81.04882812 C-2.21881434 81.03710906 -4.6093744 81.02070219 -7 81 C-7.483059 79.60550891 -7.96125517 78.20933293 -8.4375 76.8125 C-8.70433594 76.03519531 -8.97117187 75.25789063 -9.24609375 74.45703125 C-9.99513423 72.01585787 -10.49921642 69.50391792 -11 67 C-16.94 67.495 -16.94 67.495 -23 68 C-23.474375 69.794375 -23.94875 71.58875 -24.4375 73.4375 C-25.875 78.875 -25.875 78.875 -27 80 C-47.70554493 82.52963671 -47.70554493 82.52963671 -53 79 C-53.1875 75.375 -53.1875 75.375 -53 72 C-52.01 71.505 -52.01 71.505 -51 71 C-50.02292759 68.29793569 -50.02292759 68.29793569 -49.1953125 64.97265625 C-48.86120361 63.71437012 -48.52709473 62.45608398 -48.18286133 61.15966797 C-47.82981072 59.79405645 -47.47719918 58.42833135 -47.125 57.0625 C-46.76160528 55.67586708 -46.39791631 54.28931124 -46.03393555 52.90283203 C-43.99126257 45.07589315 -42.06191532 37.23228687 -40.37426758 29.32055664 C-39.13610624 23.51732419 -37.74802989 17.75748376 -36.3125 12 C-36.09762939 11.13165527 -35.88275879 10.26331055 -35.66137695 9.36865234 C-35.35913208 8.16523193 -35.35913208 8.16523193 -35.05078125 6.9375 C-34.87200439 6.22464844 -34.69322754 5.51179688 -34.5090332 4.77734375 C-34 3 -34 3 -33 1 C-22.3212567 -0.97547433 -10.81174878 -0.09701469 0 0 Z M-18 36 C-18.50354867 38.43681587 -19.00296756 40.87435439 -19.5 43.3125 C-19.64308594 44.00279297 -19.78617187 44.69308594 -19.93359375 45.40429688 C-20.52625044 48.32524773 -21 51.01108122 -21 54 C-18.6739143 54.38063221 -16.33944736 54.71269945 -14 55 C-12.30544966 53.30544966 -12.82826422 51.1891874 -12.8125 48.875 C-12.84311107 44.17926157 -13.43240953 40.40884818 -15 36 C-15.99 36 -16.98 36 -18 36 Z " fill="#C3C3C3" transform="translate(362,78)"/>
<path d="M0 0 C2 3 2 3 3 7 C22.47 7 41.94 7 62 7 C62 5.35 62 3.7 62 2 C62.66 2 63.32 2 64 2 C65.39529152 6.18587455 65.19090384 10.11169924 65.1875 14.5 C65.18741943 15.47799561 65.18733887 16.45599121 65.18725586 17.46362305 C65.11633344 27.26211575 64.61539342 37.03175157 64.0625 46.8125 C64.01902435 47.60060059 63.97554871 48.38870117 63.93075562 49.20068359 C63.80458983 51.4531786 63.67140007 53.70512555 63.53515625 55.95703125 C63.41732788 57.92119995 63.41732788 57.92119995 63.29711914 59.92504883 C63 63 63 63 62 65 C61.72244185 68.63469004 61.55264104 72.26911868 61.37890625 75.91015625 C61.25386719 76.92980469 61.12882812 77.94945312 61 79 C60.01 79.495 60.01 79.495 59 80 C56.09837162 74.35119005 55.67705259 70.2789618 56.14453125 64.00390625 C56.19316818 63.17036118 56.24180511 62.3368161 56.29191589 61.47801208 C56.44957749 58.83824493 56.63064656 56.20069967 56.8125 53.5625 C56.92408068 51.76376764 57.03412252 49.96493912 57.14257812 48.16601562 C57.41059801 43.77603112 57.69960778 39.38788336 58 35 C53.71 34.67 49.42 34.34 45 34 C45.020625 36.12566406 45.04125 38.25132813 45.0625 40.44140625 C45.0927283 48.96779441 44.5797728 57.43448989 44 65.9375 C43.9031999 67.41077806 43.80684383 68.88408536 43.7109375 70.35742188 C43.47904652 73.90529785 43.241253 77.45274682 43 81 C38.72922344 81.05794812 34.45854764 81.09357874 30.1875 81.125 C28.97255859 81.14175781 27.75761719 81.15851563 26.50585938 81.17578125 C25.34248047 81.18222656 24.17910156 81.18867188 22.98046875 81.1953125 C21.37014771 81.21102295 21.37014771 81.21102295 19.72729492 81.22705078 C17 81 17 81 14 79 C13.64355469 77.0390625 13.64355469 77.0390625 13.671875 74.625 C13.67630615 73.73022949 13.6807373 72.83545898 13.68530273 71.91357422 C13.70665283 70.95209473 13.72800293 69.99061523 13.75 69 C13.76168213 68.01918457 13.77336426 67.03836914 13.78540039 66.02783203 C14.15024287 42.39902852 14.15024287 42.39902852 16 35 C10.72 34.67 5.44 34.34 0 34 C-4.00660905 23.98347737 -2.25611335 11.59167182 -1 1 C-0.67 0.67 -0.34 0.34 0 0 Z " fill="#BDBDBD" transform="translate(448,78)"/>
<path d="M0 0 C-0.16226074 0.57943359 -0.32452148 1.15886719 -0.49169922 1.75585938 C-1.29538904 5.30413836 -1.14601252 8.88059257 -1.125 12.5 C-1.12306641 13.29647949 -1.12113281 14.09295898 -1.11914062 14.91357422 C-1.07267071 21.31738703 -0.65361233 27.62727976 0 34 C-4.29 34 -8.58 34 -13 34 C-12.84402344 36.01480469 -12.68804687 38.02960938 -12.52734375 40.10546875 C-12.38105959 42.1046856 -12.23485039 44.10390858 -12.09057617 46.10327148 C-11.9902157 47.46974252 -11.88649308 48.83597169 -11.77905273 50.2019043 C-10.9793222 60.41067112 -10.1921572 71.01573315 -13 81 C-17.29161047 81.05783842 -21.58312145 81.0935412 -25.875 81.125 C-27.09832031 81.14175781 -28.32164063 81.15851563 -29.58203125 81.17578125 C-31.33193359 81.18544922 -31.33193359 81.18544922 -33.1171875 81.1953125 C-34.19597168 81.20578613 -35.27475586 81.21625977 -36.38623047 81.22705078 C-39 81 -39 81 -41 79 C-43.0840969 64.2540314 -42.09440571 48.84267608 -42 34 C-47.94 34 -53.88 34 -60 34 C-61.66637622 29.00087135 -61.1845647 23.79613749 -61.1875 18.5625 C-61.19974609 17.41716797 -61.21199219 16.27183594 -61.22460938 15.09179688 C-61.22654297 13.99029297 -61.22847656 12.88878906 -61.23046875 11.75390625 C-61.23457764 10.74658447 -61.23868652 9.7392627 -61.24291992 8.70141602 C-60.99053569 5.89475122 -60.65350067 4.27883168 -59 2 C-56.21218547 1.08436425 -53.60233594 0.856068 -50.68139648 0.79467773 C-49.41373695 0.7647599 -49.41373695 0.7647599 -48.12046814 0.73423767 C-47.21317459 0.71752518 -46.30588104 0.70081268 -45.37109375 0.68359375 C-44.42621597 0.66281265 -43.4813382 0.64203156 -42.50782776 0.62062073 C-40.50648375 0.5774043 -38.5050919 0.53635655 -36.50366211 0.49731445 C-33.47303395 0.43819319 -30.44258568 0.37305188 -27.41210938 0.30664062 C-25.46094501 0.26526939 -23.50977329 0.22424311 -21.55859375 0.18359375 C-20.66546982 0.16485703 -19.77234589 0.1461203 -18.85215759 0.1268158 C-12.56748719 0.00511109 -6.28576134 -0.01993624 0 0 Z " fill="#B7B7B7" transform="translate(76,77)"/>
<path d="M0 0 C-0.66 16.83 -1.32 33.66 -2 51 C0.97 50.505 0.97 50.505 4 50 C9.69388319 49.18226146 15.08975179 48.96326877 20.8359375 49.35546875 C23.19788362 49.21395756 23.19788362 49.21395756 24.63525391 46.9777832 C25.08562012 46.32511475 25.53598633 45.67244629 26 45 C26.0291544 48.39581516 26.04685068 51.79159786 26.0625 55.1875 C26.07087891 56.14720703 26.07925781 57.10691406 26.08789062 58.09570312 C26.09111328 59.02705078 26.09433594 59.95839844 26.09765625 60.91796875 C26.10289307 61.77156982 26.10812988 62.6251709 26.11352539 63.50463867 C25.99579323 66.09246747 25.57107044 68.47661953 25 71 C26.65 71.66 28.3 72.32 30 73 C29.67 73.66 29.34 74.32 29 75 C27.7934375 74.7215625 27.7934375 74.7215625 26.5625 74.4375 C25.716875 74.293125 24.87125 74.14875 24 74 C23.67 74.33 23.34 74.66 23 75 C21.50659806 75.09830562 20.00859623 75.12798451 18.51196289 75.12939453 C17.08026512 75.13412277 17.08026512 75.13412277 15.61964417 75.13894653 C14.58113815 75.1369223 13.54263214 75.13489807 12.47265625 75.1328125 C10.88377846 75.13424759 10.88377846 75.13424759 9.26280212 75.13571167 C7.01740459 75.1363937 4.7720051 75.13453784 2.52661133 75.13037109 C-0.919153 75.12502845 -4.36478666 75.13031262 -7.81054688 75.13671875 C-9.98697946 75.13605787 -12.16341195 75.1347765 -14.33984375 75.1328125 C-15.37632553 75.13483673 -16.41280731 75.13686096 -17.48069763 75.13894653 C-18.43831497 75.13579437 -19.39593231 75.13264221 -20.38256836 75.12939453 C-21.22782578 75.12859894 -22.07308319 75.12780334 -22.94395447 75.12698364 C-25 75 -25 75 -27 74 C-27.4140625 71.359375 -27.4140625 71.359375 -27.625 67.75 C-27.66367188 67.10264893 -27.70234375 66.45529785 -27.7421875 65.78833008 C-28.10541498 58.82457815 -28.05442724 51.85444942 -27.96337891 44.88378906 C-27.95483887 44.01850586 -27.94629883 43.15322266 -27.9375 42.26171875 C-27.92009766 41.10095825 -27.92009766 41.10095825 -27.90234375 39.91674805 C-27.87591168 37.9139073 -27.87591168 37.9139073 -29 36 C-28.66666667 34.66666667 -28.33333333 33.33333333 -28 32 C-28.33 31.34 -28.66 30.68 -29 30 C-29.12145993 28.16962713 -29.17543185 26.33435867 -29.1875 24.5 C-29.20167969 23.5203125 -29.21585938 22.540625 -29.23046875 21.53125 C-29 19 -29 19 -27 17 C-26.5342637 14.44132526 -26.16515752 11.95312092 -25.875 9.375 C-25.78863281 8.66859375 -25.70226562 7.9621875 -25.61328125 7.234375 C-25.40118817 5.49049859 -25.19959009 3.7453516 -25 2 C-18 0 -18 0 0 0 Z " fill="#C2C2C2" transform="translate(231,84)"/>
<path d="M0 0 C-2.96875333 15.0882522 -8.93838429 29.50403331 -22.1328125 38.4453125 C-23.71853394 39.36336176 -25.35419661 40.19460685 -27 41 C-26.35933594 41.24234375 -25.71867187 41.4846875 -25.05859375 41.734375 C-22.35420124 42.78227672 -19.67657833 43.88312617 -17 45 C-16.33613281 45.25394531 -15.67226562 45.50789063 -14.98828125 45.76953125 C-9.05118862 48.47791283 -6.31757106 54.1126219 -4 60 C-4.495 60.99 -4.495 60.99 -5 62 C-8.47404176 61.44326254 -9.70034216 60.50276533 -11.75 57.6875 C-12.39195312 56.79611328 -12.39195312 56.79611328 -13.046875 55.88671875 C-18.39629497 50.71917906 -24.05897216 49.50683111 -31.34179688 49.50195312 C-32.81229492 49.53192383 -32.81229492 49.53192383 -34.3125 49.5625 C-35.28123047 49.55541016 -36.24996094 49.54832031 -37.24804688 49.54101562 C-47.42735396 49.62929514 -56.05642651 51.46861735 -64 58 C-64 53.09642777 -62.86245766 52.06397239 -59.703125 48.609375 C-54.75764923 43.93612725 -47.66886037 42.15286918 -41 41.875 C-40.34 41.91625 -39.68 41.9575 -39 42 C-39.06832031 41.04351562 -39.13664062 40.08703125 -39.20703125 39.1015625 C-39.20329396 34.15089742 -37.45915537 29.93781465 -35.6875 25.375 C-35.37876953 24.54226562 -35.07003906 23.70953125 -34.75195312 22.8515625 C-31.64049237 14.62420521 -31.64049237 14.62420521 -29 11 C-28.34 11 -27.68 11 -27 11 C-27 10.34 -27 9.68 -27 9 C-24.7941576 7.86988348 -22.58554973 6.74584212 -20.375 5.625 C-19.75753906 5.30789062 -19.14007813 4.99078125 -18.50390625 4.6640625 C-12.26840313 1.5134925 -7.11044962 -0.28441798 0 0 Z " fill="#386C36" transform="translate(146,34)"/>
<path d="M0 0 C28.38 0 56.76 0 86 0 C86.99 1.98 87.98 3.96 89 6 C80.65667456 7.19190363 72.40676978 7.09283549 64 7 C63.505 4.525 63.505 4.525 63 2 C62.34 2 61.68 2 61 2 C61 3.65 61 5.3 61 7 C41.53 7 22.06 7 2 7 C0 3 0 3 0 0 Z " fill="#444444" transform="translate(449,78)"/>
<path d="M0 0 C2.40479972 3.49100127 4.47517793 7.03801462 6 11 C5.67 11.66 5.34 12.32 5 13 C1.52595824 12.44326254 0.29965784 11.50276533 -1.75 8.6875 C-2.17796875 8.09324219 -2.6059375 7.49898437 -3.046875 6.88671875 C-8.39629497 1.71917906 -14.05897216 0.50683111 -21.34179688 0.50195312 C-22.32212891 0.52193359 -23.30246094 0.54191406 -24.3125 0.5625 C-25.28123047 0.55541016 -26.24996094 0.54832031 -27.24804688 0.54101562 C-37.42735396 0.62929514 -46.05642651 2.46861735 -54 9 C-54 4.09642777 -52.86245766 3.06397239 -49.703125 -0.390625 C-38.01170798 -11.43847778 -11.55999084 -11.13277378 0 0 Z " fill="#444544" transform="translate(136,83)"/>
<path d="M0 0 C0 0.66 0 1.32 0 2 C0.763125 2.226875 1.52625 2.45375 2.3125 2.6875 C5.68011723 4.33215028 6.48684067 5.59539151 8 9 C8.6875 12.8125 8.6875 12.8125 9 16 C6 15 6 15 4.3125 12.75 C0.86625017 8.65175696 -3.05667246 5.57914762 -8.4140625 4.5249939 C-11.08851782 4.33029298 -13.72479604 4.28152095 -16.40625 4.29296875 C-17.3715564 4.27784744 -18.33686279 4.26272614 -19.3314209 4.24714661 C-22.38785514 4.20446218 -25.44329811 4.19545012 -28.5 4.1875 C-30.58335933 4.16434077 -32.66669535 4.13897248 -34.75 4.11132812 C-39.83342023 4.04866579 -44.91622794 4.01618025 -50 4 C-49.67 2.35 -49.34 0.7 -49 -1 C-36.05286838 -4.71255099 -12.3567851 -6.17839255 0 0 Z " fill="#424241" transform="translate(193,80)"/>
<path d="M0 0 C-0.66 2.31 -1.32 4.62 -2 7 C-21.47 7 -40.94 7 -61 7 C-59 2 -59 2 -57.14491272 1.20033264 C-54.98195535 0.99831465 -52.85378185 0.84033541 -50.68139648 0.79467773 C-49.41373695 0.7647599 -49.41373695 0.7647599 -48.12046814 0.73423767 C-47.21317459 0.71752518 -46.30588104 0.70081268 -45.37109375 0.68359375 C-44.42621597 0.66281265 -43.4813382 0.64203156 -42.50782776 0.62062073 C-40.50648375 0.5774043 -38.5050919 0.53635655 -36.50366211 0.49731445 C-33.47303395 0.43819319 -30.44258568 0.37305188 -27.41210938 0.30664062 C-25.46094501 0.26526939 -23.50977329 0.22424311 -21.55859375 0.18359375 C-20.66546982 0.16485703 -19.77234589 0.1461203 -18.85215759 0.1268158 C-12.56748719 0.00511109 -6.28576134 -0.01993624 0 0 Z " fill="#404040" transform="translate(76,77)"/>
<path d="M0 0 C2.27323681 -0.00973028 4.54557676 -0.04084921 6.81860352 -0.07226562 C25.10910639 -0.20968197 25.10910639 -0.20968197 31.85180664 5.28320312 C32.38547852 5.99089844 32.91915039 6.69859375 33.46899414 7.42773438 C34.02844727 8.14316406 34.58790039 8.85859375 35.16430664 9.59570312 C35.74825195 10.40974609 35.74825195 10.40974609 36.34399414 11.24023438 C34.45727539 11.82226562 34.45727539 11.82226562 32.34399414 12.24023438 C30.9940906 11.26271802 29.66363123 10.25824013 28.34399414 9.24023438 C22.57521346 7.14224039 17.35257616 6.97531948 11.25415039 7.04492188 C10.30962509 7.04775177 9.36509979 7.05058167 8.39195251 7.05349731 C5.3966669 7.06462754 2.40168828 7.08971878 -0.59350586 7.11523438 C-2.63321506 7.12527343 -4.67292898 7.13439766 -6.71264648 7.14257812 C-11.69388326 7.16454341 -16.67489263 7.19902361 -21.65600586 7.24023438 C-22.31600586 5.26023437 -22.97600586 3.28023438 -23.65600586 1.24023438 C-15.77962404 0.13164034 -7.9385282 0.0205152 0 0 Z " fill="#3E3E3E" transform="translate(405.656005859375,77.759765625)"/>
<path d="M0 0 C0.66 0 1.32 0 2 0 C3.39529152 4.18587455 3.19090384 8.11169924 3.1875 12.5 C3.18737915 13.96699341 3.18737915 13.96699341 3.18725586 15.46362305 C3.11633344 25.26211575 2.61539342 35.03175157 2.0625 44.8125 C2.01902435 45.60060059 1.97554871 46.38870117 1.93075562 47.20068359 C1.80458983 49.4531786 1.67140007 51.70512555 1.53515625 53.95703125 C1.41732788 55.92119995 1.41732788 55.92119995 1.29711914 57.92504883 C1 61 1 61 0 63 C-0.27755815 66.63469004 -0.44735896 70.26911868 -0.62109375 73.91015625 C-0.74613281 74.92980469 -0.87117188 75.94945312 -1 77 C-1.99 77.495 -1.99 77.495 -3 78 C-5.99099676 72.23140715 -6.30866747 67.98450615 -5.85546875 61.56640625 C-5.80683182 60.68846909 -5.75819489 59.81053192 -5.70808411 58.9059906 C-5.55033164 56.12363742 -5.36929589 53.34337517 -5.1875 50.5625 C-5.07592875 48.66740805 -4.96588675 46.77222541 -4.85742188 44.87695312 C-4.5892972 40.25006513 -4.30029393 35.624907 -4 31 C-3.01 31 -2.02 31 -1 31 C-1.01160156 30.27039063 -1.02320313 29.54078125 -1.03515625 28.7890625 C-1.11836783 19.16029394 -0.60378262 9.60661268 0 0 Z " fill="#F0F0F0" transform="translate(510,80)"/>
<path d="M0 0 C1.40897804 0.00333092 1.40897804 0.00333092 2.84642029 0.00672913 C3.90744461 0.00680466 4.96846893 0.00688019 6.06164551 0.00695801 C7.21579453 0.01211929 8.36994354 0.01728058 9.55906677 0.02259827 C10.73404221 0.02401321 11.90901764 0.02542816 13.11959839 0.02688599 C16.88981116 0.0325046 20.65996556 0.04506026 24.43016052 0.05775452 C26.97898779 0.06276712 29.52781599 0.06733044 32.0766449 0.07142639 C38.34033685 0.08248007 44.60399452 0.0992363 50.86766052 0.12025452 C51.36266052 3.09025452 51.36266052 3.09025452 51.86766052 6.12025452 C50.59761169 6.14531067 49.32756287 6.17036682 48.01902771 6.19618225 C43.25527319 6.29117138 38.49163388 6.39115917 33.72801208 6.49256897 C31.67595639 6.53557516 29.62387274 6.57727023 27.57176208 6.61756897 C11.69408422 6.89862233 11.69408422 6.89862233 -4.13233948 8.12025452 C-3.12125572 0.17602502 -3.12125572 0.17602502 0 0 Z " fill="#3D3D3D" transform="translate(259.13233947753906,77.87974548339844)"/>
<path d="M0 0 C1.4606285 2.64738916 2 3.89448334 2 7 C-9.22 7 -20.44 7 -32 7 C-32.33 9.64 -32.66 12.28 -33 15 C-34.0625 17.5 -34.0625 17.5 -35 19 C-36.1171875 17.453125 -36.1171875 17.453125 -37 15 C-36.3203125 11.546875 -36.3203125 11.546875 -35.125 7.75 C-34.82529297 6.77546875 -34.82529297 6.77546875 -34.51953125 5.78125 C-34.02608016 4.18340837 -33.51476828 2.59110197 -33 1 C-21.98906587 -0.12520495 -11.05561292 -0.09920291 0 0 Z " fill="#454545" transform="translate(362,78)"/>
<path d="M0 0 C0.33 0 0.66 0 1 0 C1.11542835 22.69321348 1.01871708 45.32541682 0 68 C-0.99 68 -1.98 68 -3 68 C-3.91770197 62.03493717 -3.9976925 56.40184475 -3.81640625 50.3828125 C-3.79698975 49.73703751 -3.77757324 49.09126251 -3.75756836 48.42591858 C-3.54078223 41.28600538 -3.30572954 34.14669547 -3.06640625 27.00750732 C-3.00448028 25.13544203 -2.94548519 23.26328042 -2.88671875 21.39111328 C-2.78845969 18.32279217 -2.67790084 15.25521707 -2.5625 12.1875 C-2.53551025 11.28854004 -2.50852051 10.38958008 -2.48071289 9.46337891 C-2.22983091 3.34474636 -2.22983091 3.34474636 0 0 Z " fill="#D9D9D9" transform="translate(382,90)"/>
<path d="M0 0 C0.96550781 0.00451172 1.93101562 0.00902344 2.92578125 0.01367188 C5.28392089 0.02534583 7.64192602 0.04171979 10 0.0625 C10.495 3.0325 10.495 3.0325 11 6.0625 C-0.02363628 6.97300683 -10.94305724 7.1764891 -22 7.0625 C-22 6.0725 -22 5.0825 -22 4.0625 C-21.01 4.0625 -20.02 4.0625 -19 4.0625 C-19 3.0725 -19 2.0825 -19 1.0625 C-12.62542652 0.10781742 -6.43938347 -0.0577324 0 0 Z " fill="#414141" transform="translate(299,133.9375)"/>
<path d="M0 0 C1.32 0.33 2.64 0.66 4 1 C3.98839844 2.28777344 3.97679687 3.57554688 3.96484375 4.90234375 C3.9554673 6.58072772 3.94636695 8.25911326 3.9375 9.9375 C3.92912109 10.78763672 3.92074219 11.63777344 3.91210938 12.51367188 C3.90888672 13.32255859 3.90566406 14.13144531 3.90234375 14.96484375 C3.89710693 15.7137085 3.89187012 16.46257324 3.88647461 17.23413086 C3.80658248 19.02667739 3.80658248 19.02667739 5 20 C6.16176176 32.25438074 6.32496201 44.17089837 0 55 C-0.32226562 55.69738281 -0.64453125 56.39476562 -0.9765625 57.11328125 C-3.11009799 61.04647835 -5.46360993 62.40196824 -9.6875 63.6875 C-10.49574219 63.93886719 -11.30398437 64.19023437 -12.13671875 64.44921875 C-12.75160156 64.63097656 -13.36648437 64.81273437 -14 65 C-14 64.34 -14 63.68 -14 63 C-13.40832031 62.74347656 -12.81664063 62.48695313 -12.20703125 62.22265625 C-11.41683594 61.83980469 -10.62664062 61.45695312 -9.8125 61.0625 C-8.64654297 60.52302734 -8.64654297 60.52302734 -7.45703125 59.97265625 C-3.13017221 56.49878691 -0.45369233 51.79982988 0.43733215 46.3011322 C0.57491814 43.32236908 0.563306 40.38329316 0.48828125 37.40234375 C0.48120651 36.32747208 0.47413177 35.2526004 0.46684265 34.14515686 C0.43905181 30.74186995 0.37633981 27.34028218 0.3125 23.9375 C0.28739745 21.61786245 0.26458773 19.29819888 0.24414062 16.97851562 C0.18927566 11.31843936 0.10580405 5.65934111 0 0 Z " fill="#D3D3D3" transform="translate(139,94)"/>
<path d="M0 0 C1 1 1 1 1.0625 4.0625 C1.041875 5.031875 1.02125 6.00125 1 7 C-8.37104106 7.88495497 -17.59771406 8.1170409 -27 8 C-26.67 6.35 -26.34 4.7 -26 3 C-25.01 3 -24.02 3 -23 3 C-23 2.34 -23 1.68 -23 1 C-6.35073069 -0.46137787 -6.35073069 -0.46137787 0 0 Z " fill="#4C4C4C" transform="translate(254,133)"/>
<path d="M0 0 C0.12391651 10.65681961 -0.04808643 21.28663235 -0.4375 31.9375 C-0.47673584 33.0807373 -0.51597168 34.22397461 -0.55639648 35.40185547 C-0.59837158 36.4745166 -0.64034668 37.54717773 -0.68359375 38.65234375 C-0.72025146 39.61132568 -0.75690918 40.57030762 -0.79467773 41.55834961 C-1 44 -1 44 -2 47 C-2.99 46.67 -3.98 46.34 -5 46 C-5.09808656 35.28291151 -5.15223115 24.57968344 -4.5625 13.875 C-4.52326416 13.13652832 -4.48402832 12.39805664 -4.44360352 11.63720703 C-4.24134439 8.32574772 -3.98040579 5.1801398 -3 2 C-4.32 1.67 -5.64 1.34 -7 1 C-2.25 0 -2.25 0 0 0 Z " fill="#F0F0F0" transform="translate(467,111)"/>
<path d="M0 0 C0 1.98 0 3.96 0 6 C-8.58 6.33 -17.16 6.66 -26 7 C-26 5.02 -26 3.04 -26 1 C-18.56953341 -2.7152333 -7.95258085 -0.91652084 0 0 Z " fill="#444443" transform="translate(230,78)"/>
<path d="M0 0 C-0.33 1.98 -0.66 3.96 -1 6 C-2.05058594 6.23074219 -3.10117188 6.46148437 -4.18359375 6.69921875 C-12.19222638 8.53254318 -19.01320617 10.53452742 -26 15 C-27.32583356 15.68145991 -28.65729635 16.35241284 -30 17 C-29.67 15.02 -29.34 13.04 -29 11 C-28.34 11 -27.68 11 -27 11 C-27 10.34 -27 9.68 -27 9 C-24.7941576 7.86988348 -22.58554973 6.74584212 -20.375 5.625 C-19.44880859 5.14933594 -19.44880859 5.14933594 -18.50390625 4.6640625 C-12.26840313 1.5134925 -7.11044962 -0.28441798 0 0 Z " fill="#142714" transform="translate(146,34)"/>
<path d="M0 0 C1.32 0.33 2.64 0.66 4 1 C4.31558702 5.17602362 4.61804024 9.35275193 4.90942383 13.53051758 C5.0098404 14.94547832 5.11356889 16.36020874 5.22094727 17.7746582 C6.62761594 36.37834678 6.62761594 36.37834678 5 45 C4.01 45.495 4.01 45.495 3 46 C-0.18071015 36.45786956 0.71112084 25.31138715 0.4375 15.3125 C0.39418922 13.82095454 0.35057152 12.32941795 0.30664062 10.83789062 C0.20089527 7.22535571 0.09928034 3.61271906 0 0 Z " fill="#F9F9F9" transform="translate(59,109)"/>
<path d="M0 0 C1.73594665 3.01264361 2.24837298 5.1678182 2.23046875 8.6328125 C2.22853516 9.52226563 2.22660156 10.41171875 2.22460938 11.328125 C2.21236328 12.25109375 2.20011719 13.1740625 2.1875 14.125 C2.18685547 15.02476563 2.18621094 15.92453125 2.18554688 16.8515625 C2.14611066 22.95102973 1.7118243 28.94334993 1 35 C0.01 35 -0.98 35 -2 35 C-3.4208937 32.1582126 -3.12979255 29.74016255 -3.1328125 26.56640625 C-3.13410156 25.27798828 -3.13539063 23.98957031 -3.13671875 22.66210938 C-3.13462402 21.98946045 -3.1325293 21.31681152 -3.13037109 20.6237793 C-3.12502991 18.57398035 -3.13031546 16.52440141 -3.13671875 14.47460938 C-3.13542969 13.18490234 -3.13414062 11.89519531 -3.1328125 10.56640625 C-3.13168457 9.37990479 -3.13055664 8.19340332 -3.12939453 6.97094727 C-3 4 -3 4 -2 1 C-1.34 0.67 -0.68 0.34 0 0 Z " fill="#EEEFEE" transform="translate(546,78)"/>
<path d="M0 0 C3.95819611 -0.08678303 7.91614934 -0.14031733 11.875 -0.1875 C13.00292969 -0.21263672 14.13085938 -0.23777344 15.29296875 -0.26367188 C16.36933594 -0.27333984 17.44570313 -0.28300781 18.5546875 -0.29296875 C20.04718018 -0.31653442 20.04718018 -0.31653442 21.56982422 -0.34057617 C22.37178223 -0.22818604 23.17374023 -0.1157959 24 0 C26 3 26 3 26 6 C22.04180389 6.08678303 18.08385066 6.14031733 14.125 6.1875 C12.43310547 6.22520508 12.43310547 6.22520508 10.70703125 6.26367188 C9.09248047 6.27817383 9.09248047 6.27817383 7.4453125 6.29296875 C5.95281982 6.31653442 5.95281982 6.31653442 4.43017578 6.34057617 C3.62821777 6.22818604 2.82625977 6.1157959 2 6 C0 3 0 3 0 0 Z " fill="#424242" transform="translate(547,79)"/>
<path d="M0 0 C0.66 0 1.32 0 2 0 C3.39533539 4.18600617 3.19052622 8.11159986 3.1875 12.5 C3.18814453 13.47654541 3.18878906 14.45309082 3.18945312 15.45922852 C3.08744356 30.65749396 1.97745522 45.83774583 1 61 C0.67 61 0.34 61 0 61 C0 49.12 0 37.24 0 25 C-0.33 25 -0.66 25 -1 25 C-0.67 16.75 -0.34 8.5 0 0 Z " fill="#DDDDDD" transform="translate(510,80)"/>
<path d="M0 0 C1.32 0 2.64 0 4 0 C4.09579384 8.07861415 4.12513633 15.98340366 3 24 C2.01 23.67 1.02 23.34 0 23 C-1.13127933 20.73744135 -1.12890585 19.48212091 -1.1328125 16.97265625 C-1.13410156 16.18052734 -1.13539063 15.38839844 -1.13671875 14.57226562 C-1.13285156 13.74404297 -1.12898437 12.91582031 -1.125 12.0625 C-1.12886719 11.23814453 -1.13273438 10.41378906 -1.13671875 9.56445312 C-1.13542969 8.77103516 -1.13414062 7.97761719 -1.1328125 7.16015625 C-1.13168457 6.43449463 -1.13055664 5.70883301 -1.12939453 4.96118164 C-1 3 -1 3 0 0 Z " fill="#F4F4F4" transform="translate(541,134)"/>
<path d="M0 0 C0.33 0 0.66 0 1 0 C2.46560818 10.93971819 2.09470423 21.98954106 2 33 C1.01 33.495 1.01 33.495 0 34 C-3.07549795 27.84900409 -2.12722821 19.37544005 -2.1875 12.625 C-2.20047119 11.83996094 -2.21344238 11.05492188 -2.22680664 10.24609375 C-2.23307737 6.35991377 -2.2229437 3.28609068 0 0 Z " fill="#F4F4F3" transform="translate(76,77)"/>
<path d="M0 0 C0.66 0.99 1.32 1.98 2 3 C2.66 2.01 3.32 1.02 4 0 C3.52829176 4.52839913 2.60701797 8.16124227 0.890625 12.41015625 C-0.58389372 16.69790147 -1.55119479 21.12175184 -2.55395508 25.54077148 C-3.78873261 30.78873261 -3.78873261 30.78873261 -6 33 C-7.11555187 29.65334438 -6.86683211 28.53118835 -6.07421875 25.17578125 C-5.85443359 24.22896484 -5.63464844 23.28214844 -5.40820312 22.30664062 C-5.05145508 20.82454102 -5.05145508 20.82454102 -4.6875 19.3125 C-4.46126953 18.34376953 -4.23503906 17.37503906 -4.00195312 16.37695312 C-2.71818719 10.90522454 -1.37679247 5.44899555 0 0 Z " fill="#ADADAC" transform="translate(325,93)"/>
<path d="M0 0 C0.66 0 1.32 0 2 0 C2 9.24 2 18.48 2 28 C1.01 27.67 0.02 27.34 -1 27 C-4.26249762 19.06062717 -2.20583862 7.996165 0 0 Z " fill="#E3E3E3" transform="translate(448,84)"/>
<path d="M0 0 C15.84 0 31.68 0 48 0 C48 0.33 48 0.66 48 1 C32.49 1 16.98 1 1 1 C1.33 1.66 1.66 2.32 2 3 C2.94449214 9.82133213 3.17430197 16.21514418 2 23 C1.34 23 0.68 23 0 23 C0 15.41 0 7.82 0 0 Z " fill="#9A9A9A" transform="translate(15,84)"/>
<path d="M0 0 C0.66 0.33 1.32 0.66 2 1 C2 10.57 2 20.14 2 30 C1.01 30 0.02 30 -1 30 C-1.94258444 23.87320112 -1.99071853 18.23543487 -1.5625 12.0625 C-1.48128906 10.85722656 -1.40007812 9.65195313 -1.31640625 8.41015625 C-1.04937075 5.53210697 -0.63571398 2.81530476 0 0 Z " fill="#E2E2E1" transform="translate(380,128)"/>
<path d="M0 0 C0.94875 0.04125 1.8975 0.0825 2.875 0.125 C3.84139442 13.13681059 3.9933055 26.08045355 3.875 39.125 C0.51477815 35.76477815 0.91608737 31.34286511 0.76147461 26.76000977 C0.76671143 25.62362061 0.77194824 24.48723145 0.77734375 23.31640625 C0.78056641 22.07568359 0.78378906 20.83496094 0.78710938 19.55664062 C0.79548828 18.27982422 0.80386719 17.00300781 0.8125 15.6875 C0.81701172 14.38361328 0.82152344 13.07972656 0.82617188 11.73632812 C0.83790749 8.53250448 0.85432637 5.32877637 0.875 2.125 C-1.105 2.125 -3.085 2.125 -5.125 2.125 C-3.125 0.125 -3.125 0.125 0 0 Z " fill="#A9AAA9" transform="translate(33.125,108.875)"/>
<path d="M0 0 C0.33 0 0.66 0 1 0 C1.1361951 10.42649158 0.85586064 20.78040976 0.26782227 31.19165039 C0.21940186 32.13258545 0.17098145 33.07352051 0.12109375 34.04296875 C0.0739624 34.87852295 0.02683105 35.71407715 -0.02172852 36.57495117 C0.0014866 39.16591476 0.41614163 41.48061882 1 44 C0.34 44 -0.32 44 -1 44 C-3.42622507 39.32415144 -3.11652426 35.33078216 -2.79296875 30.234375 C-2.74811844 29.4003717 -2.70326813 28.56636841 -2.65705872 27.70709229 C-2.56046678 25.95188818 -2.45844324 24.19697556 -2.35131836 22.44238281 C-2.18725649 19.74599779 -2.0404864 17.04908603 -1.89648438 14.3515625 C-1.80048563 12.64577639 -1.70351465 10.94004466 -1.60546875 9.234375 C-1.56060837 8.42401794 -1.51574799 7.61366089 -1.4695282 6.77874756 C-1.11650947 1.11650947 -1.11650947 1.11650947 0 0 Z " fill="#FDFDFD" transform="translate(507,112)"/>
<path d="M0 0 C0.99 0.33 1.98 0.66 3 1 C2.97679688 1.62003906 2.95359375 2.24007812 2.9296875 2.87890625 C2.76238682 11.08858966 3.77565655 18.89965625 5 27 C3.0625 26.6875 3.0625 26.6875 1 26 C-0.01973129 22.94080612 -0.11533602 20.87581975 -0.09765625 17.67578125 C-0.09443359 16.64775391 -0.09121094 15.61972656 -0.08789062 14.56054688 C-0.07951172 13.48869141 -0.07113281 12.41683594 -0.0625 11.3125 C-0.05798828 10.22904297 -0.05347656 9.14558594 -0.04882812 8.02929688 C-0.03703743 5.35280915 -0.02058063 2.67643223 0 0 Z " fill="#F5F5F5" transform="translate(101,112)"/>
<path d="M0 0 C0.99 0.495 0.99 0.495 2 1 C1.979375 2.134375 1.95875 3.26875 1.9375 4.4375 C1.58422523 7.81575674 1.58422523 7.81575674 3 9 C3.28006266 12.78424065 3.23180637 16.58162732 3.25 20.375 C3.270625 21.44234375 3.29125 22.5096875 3.3125 23.609375 C3.31765625 24.63289063 3.3228125 25.65640625 3.328125 26.7109375 C3.3374707 27.65243652 3.34681641 28.59393555 3.35644531 29.56396484 C3 32 3 32 0 35 C0 23.45 0 11.9 0 0 Z " fill="#F2F2F2" transform="translate(141,105)"/>
<path d="M0 0 C1.32 0.33 2.64 0.66 4 1 C4.11455246 7.92326453 3.6746729 14.67445441 3 21.5625 C2.90460937 22.57119141 2.80921875 23.57988281 2.7109375 24.61914062 C2.47769871 27.07980981 2.24065109 29.5400466 2 32 C1.67 32 1.34 32 1 32 C0.67 21.44 0.34 10.88 0 0 Z " fill="#EEEEEE" transform="translate(59,109)"/>
<path d="M0 0 C2.31 0 4.62 0 7 0 C5.68 0.33 4.36 0.66 3 1 C2.67 7.6 2.34 14.2 2 21 C1.67 21 1.34 21 1 21 C1 19.35 1 17.7 1 16 C0.01 16 -0.98 16 -2 16 C-2.33 14.35 -2.66 12.7 -3 11 C-2.34 11 -1.68 11 -1 11 C-1.33 9.02 -1.66 7.04 -2 5 C-1.67 5 -1.34 5 -1 5 C-0.67 3.35 -0.34 1.7 0 0 Z " fill="#AEAEAE" transform="translate(203,85)"/>
<path d="M0 0 C0.66 0.33 1.32 0.66 2 1 C2 7.6 2 14.2 2 21 C1.01 20.67 0.02 20.34 -1 20 C-2.07787679 15.78501913 -1.95969909 12.07395038 -1.625 7.75 C-1.48964844 5.88601562 -1.48964844 5.88601562 -1.3515625 3.984375 C-1 1 -1 1 0 0 Z " fill="#F0F0F0" transform="translate(419,137)"/>
<path d="M0 0 C0.66 0.33 1.32 0.66 2 1 C2 7.6 2 14.2 2 21 C1.01 20.67 0.02 20.34 -1 20 C-1.02888514 16.85418577 -1.04675923 13.70840531 -1.0625 10.5625 C-1.07087891 9.66466797 -1.07925781 8.76683594 -1.08789062 7.84179688 C-1.09111328 6.98779297 -1.09433594 6.13378906 -1.09765625 5.25390625 C-1.10551147 4.06776733 -1.10551147 4.06776733 -1.11352539 2.85766602 C-1 1 -1 1 0 0 Z " fill="#F1F1F1" transform="translate(463,137)"/>
<path d="M0 0 C-0.66 0 -1.32 0 -2 0 C-2 1.65 -2 3.3 -2 5 C-7.07476794 6.26305335 -11.72796354 7.27036084 -17 7 C-17 6.34 -17 5.68 -17 5 C-13.49223216 3.39644899 -10.85645121 2.77963136 -7 3 C-6.67 2.01 -6.34 1.02 -6 0 C-3.50907189 -1.24546405 -2.58919267 -0.7767578 0 0 Z " fill="#ABABAA" transform="translate(305,107)"/>
<path d="M0 0 C1.32 0.33 2.64 0.66 4 1 C4 4.3 4 7.6 4 11 C3.34 11 2.68 11 2 11 C2 17.6 2 24.2 2 31 C1.67 31 1.34 31 1 31 C0.67 20.77 0.34 10.54 0 0 Z " fill="#E1E1E1" transform="translate(139,94)"/>
<path d="M0 0 C0.66 0 1.32 0 2 0 C2.8723255 3.77542477 3.16344601 7.31480698 3.1875 11.1875 C3.20167969 12.23292969 3.21585938 13.27835938 3.23046875 14.35546875 C3 17 3 17 1 19 C0 18 0 18 -0.11352539 16.23413086 C-0.10828857 15.48526611 -0.10305176 14.73640137 -0.09765625 13.96484375 C-0.09443359 13.15595703 -0.09121094 12.34707031 -0.08789062 11.51367188 C-0.07951172 10.66353516 -0.07113281 9.81339844 -0.0625 8.9375 C-0.05798828 8.08349609 -0.05347656 7.22949219 -0.04882812 6.34960938 C-0.03700373 4.23304337 -0.01906769 2.11651315 0 0 Z " fill="#E7E7E6" transform="translate(167,139)"/>
<path d="M0 0 C2.31 0 4.62 0 7 0 C5.515 2.475 5.515 2.475 4 5 C7.63 5 11.26 5 15 5 C15 5.33 15 5.66 15 6 C9.06 6 3.12 6 -3 6 C-3 5.01 -3 4.02 -3 3 C-2.01 3 -1.02 3 0 3 C0 2.01 0 1.02 0 0 Z " fill="#626262" transform="translate(280,135)"/>
<path d="M0 0 C0.33 0 0.66 0 1 0 C1 10.23 1 20.46 1 31 C0.67 31 0.34 31 0 31 C-0.33 25.39 -0.66 19.78 -1 14 C-1.66 14 -2.32 14 -3 14 C-3 13.34 -3 12.68 -3 12 C-2.34 12 -1.68 12 -1 12 C-1.01160156 11.21753906 -1.02320313 10.43507812 -1.03515625 9.62890625 C-1.04417969 8.61699219 -1.05320312 7.60507813 -1.0625 6.5625 C-1.07410156 5.55316406 -1.08570313 4.54382813 -1.09765625 3.50390625 C-1 1 -1 1 0 0 Z " fill="#E5E5E5" transform="translate(465,124)"/>
<path d="M0 0 C5.61 0 11.22 0 17 0 C17 0.33 17 0.66 17 1 C12.05 1.33 7.1 1.66 2 2 C2 5.63 2 9.26 2 13 C1.01 13.495 1.01 13.495 0 14 C0 9.38 0 4.76 0 0 Z " fill="#979797" transform="translate(143,84)"/>
<path d="M0 0 C0.66 0.33 1.32 0.66 2 1 C-0.63867219 6.27734437 -4.61153353 10.7500587 -10.234375 12.82421875 C-12.13724227 13.29993557 -14.06807506 13.6610658 -16 14 C-16 13.34 -16 12.68 -16 12 C-15.34773437 11.72027344 -14.69546875 11.44054687 -14.0234375 11.15234375 C-7.78414028 8.29036523 -4.10239663 5.5058481 0 0 Z " fill="#D4D4D4" transform="translate(199,127)"/>
<path d="M0 0 C2.45862401 -0.05383848 4.9160755 -0.09359038 7.375 -0.125 C8.42300781 -0.15013672 8.42300781 -0.15013672 9.4921875 -0.17578125 C11.32897486 -0.19344267 13.16601963 -0.10303261 15 0 C15.66 0.66 16.32 1.32 17 2 C11.33357449 3.22517308 5.76291482 3.09228867 0 3 C0 2.01 0 1.02 0 0 Z " fill="#A3A3A4" transform="translate(280,105)"/>
<path d="M0 0 C0.74507812 0.00902344 1.49015625 0.01804688 2.2578125 0.02734375 C4.08868059 0.05081642 5.91938238 0.08668475 7.75 0.125 C8.08 1.115 8.41 2.105 8.75 3.125 C1.82 2.795 -5.11 2.465 -12.25 2.125 C-7.87703266 -0.06148367 -4.7291784 -0.10862071 0 0 Z " fill="#B5B5B5" transform="translate(245.25,155.875)"/>
<path d="M0 0 C0.33 0 0.66 0 1 0 C0.85811015 2.54194161 0.71160845 5.08347993 0.5625 7.625 C0.50352539 8.69427734 0.50352539 8.69427734 0.44335938 9.78515625 C0.19690319 13.91803682 -0.23470053 17.92269024 -1 22 C-1.33 22 -1.66 22 -2 22 C-2.05401695 19.08308475 -2.09368066 16.16717276 -2.125 13.25 C-2.14175781 12.425 -2.15851563 11.6 -2.17578125 10.75 C-2.18222656 9.95078125 -2.18867187 9.1515625 -2.1953125 8.328125 C-2.20578613 7.5949707 -2.21625977 6.86181641 -2.22705078 6.10644531 C-1.96777544 3.70103924 -1.19225925 2.08748506 0 0 Z " fill="#E1E1E1" transform="translate(76,77)"/>
<path d="M0 0 C0.89203125 0.00902344 1.7840625 0.01804687 2.703125 0.02734375 C3.37859375 0.03894531 4.0540625 0.05054687 4.75 0.0625 C4.75 1.0525 4.75 2.0425 4.75 3.0625 C3.574375 3.041875 2.39875 3.02125 1.1875 3 C-2.72413467 2.99302739 -6.39497944 3.41999657 -10.25 4.0625 C-9.92 3.0725 -9.59 2.0825 -9.25 1.0625 C-6.21826719 -0.13243974 -3.22540573 -0.04243955 0 0 Z " fill="#B4B4B4" transform="translate(304.25,103.9375)"/>
<path d="M0 0 C0.66 0 1.32 0 2 0 C2 3.96 2 7.92 2 12 C1.01 12 0.02 12 -1 12 C-1.02687279 10.18757948 -1.04633715 8.37504767 -1.0625 6.5625 C-1.07410156 5.55316406 -1.08570313 4.54382813 -1.09765625 3.50390625 C-1 1 -1 1 0 0 Z " fill="#E3E3E3" transform="translate(417,103)"/>
<path d="M0 0 C2.18040395 3.27060593 2.22083539 3.76374489 1.75 7.4375 C1.66234375 8.19933594 1.5746875 8.96117188 1.484375 9.74609375 C0.97971611 12.09438552 0.16278978 13.9079315 -1 16 C-2.79570284 13.33874255 -3.03345719 12.21888938 -2.5390625 8.984375 C-2.23742187 7.91703125 -1.93578125 6.8496875 -1.625 5.75 C-1.32851563 4.67234375 -1.03203125 3.5946875 -0.7265625 2.484375 C-0.48679687 1.66453125 -0.24703125 0.8446875 0 0 Z " fill="#6F6F6F" transform="translate(328,81)"/>
<path d="M0 0 C2.97 0 5.94 0 9 0 C9.13392857 9.10714286 9.13392857 9.10714286 8 13 C7.34 13 6.68 13 6 13 C6.33 9.04 6.66 5.08 7 1 C4.69 1 2.38 1 0 1 C0 0.67 0 0.34 0 0 Z " fill="#989898" transform="translate(529,84)"/>
<path d="M0 0 C0.33 0 0.66 0 1 0 C1 5.61 1 11.22 1 17 C-1.83405655 14.16594345 -1.67620345 11.95031797 -2 8 C-1.35714286 1.35714286 -1.35714286 1.35714286 0 0 Z " fill="#A1A1A0" transform="translate(36,131)"/>
<path d="M0 0 C0.66 0 1.32 0 2 0 C2.06058594 0.77085938 2.12117187 1.54171875 2.18359375 2.3359375 C2.26738281 3.33882813 2.35117188 4.34171875 2.4375 5.375 C2.55931641 6.87160156 2.55931641 6.87160156 2.68359375 8.3984375 C2.84965626 10.97927613 2.84965626 10.97927613 4 13 C2.68 13.99 1.36 14.98 0 16 C0 10.72 0 5.44 0 0 Z " fill="#E7E7E7" transform="translate(166,105)"/>
<path d="M0 0 C0.66 1.65 1.32 3.3 2 5 C-2.44870215 5.39253254 -5.14243493 4.15305957 -9 2 C-9 1.67 -9 1.34 -9 1 C-5.846632 0.29925156 -3.27275026 0 0 0 Z " fill="#6D6D6D" transform="translate(439,122)"/>
<path d="M0 0 C0.66 0.99 1.32 1.98 2 3 C2.66 2.01 3.32 1.02 4 0 C3.25 6.625 3.25 6.625 1 10 C0.01 10 -0.98 10 -2 10 C-1.34 6.7 -0.68 3.4 0 0 Z " fill="#969695" transform="translate(325,93)"/>
<path d="M0 0 C3.24299151 2.38957269 5.50902342 4.2047869 7 8 C4.28324005 7.63287028 2.38936287 7.27255401 0.125 5.6875 C-1 4 -1 4 -0.6875 1.8125 C-0.460625 1.214375 -0.23375 0.61625 0 0 Z " fill="#4C4C4C" transform="translate(435,82)"/>
<path d="M0 0 C0 2 0 2 -1.20703125 3.51953125 C-3.3014562 5.24891482 -5.09710438 5.89911873 -7.6875 6.6875 C-8.89986328 7.06455078 -8.89986328 7.06455078 -10.13671875 7.44921875 C-11.05904297 7.72185547 -11.05904297 7.72185547 -12 8 C-12 7.34 -12 6.68 -12 6 C-9.8828125 4.4921875 -9.8828125 4.4921875 -7.125 2.875 C-6.22007812 2.33617187 -5.31515625 1.79734375 -4.3828125 1.2421875 C-2 0 -2 0 0 0 Z " fill="#DDDDDD" transform="translate(137,151)"/>
<path d="M0 0 C0 4.62 0 9.24 0 14 C-1.73684533 10.52630934 -2.30084112 8.92380063 -2.625 5.25 C-2.69976562 4.45078125 -2.77453125 3.6515625 -2.8515625 2.828125 C-2.90054688 2.22484375 -2.94953125 1.6215625 -3 1 C-1 0 -1 0 0 0 Z " fill="#B2B2B3" transform="translate(145,97)"/>
<path d="M0 0 C0.33 0.66 0.66 1.32 1 2 C1.66 2 2.32 2 3 2 C3 4.64 3 7.28 3 10 C2.01 10.33 1.02 10.66 0 11 C-0.33 9.35 -0.66 7.7 -1 6 C-0.34 6 0.32 6 1 6 C0.67 4.02 0.34 2.04 0 0 Z " fill="#808181" transform="translate(201,90)"/>
<path d="M0 0 C-0.66 0 -1.32 0 -2 0 C-2 1.65 -2 3.3 -2 5 C-3.32 4.67 -4.64 4.34 -6 4 C-6 2.68 -6 1.36 -6 0 C-3.50907189 -1.24546405 -2.58919267 -0.7767578 0 0 Z " fill="#8B8B8B" transform="translate(305,107)"/>
<path d="M0 0 C2.29257254 4.00318435 2.00301452 6.48643465 1 11 C0.34 11.66 -0.32 12.32 -1 13 C-2.12758089 9.61725734 -1.81750262 8.23221777 -1.0625 4.8125 C-0.86785156 3.91144531 -0.67320312 3.01039062 -0.47265625 2.08203125 C-0.23869141 1.05142578 -0.23869141 1.05142578 0 0 Z " fill="#B5B5B4" transform="translate(320,113)"/>
<path d="M0 0 C0.33 0 0.66 0 1 0 C1 2.97 1 5.94 1 9 C0.01 9 -0.98 9 -2 9 C-2.25 3.375 -2.25 3.375 0 0 Z " fill="#D1D1D1" transform="translate(382,90)"/>
<path d="M0 0 C0.33 0 0.66 0 1 0 C1 2.97 1 5.94 1 9 C-2.69418201 10.231394 -5.2056261 9.64432764 -9 9 C-9 8.67 -9 8.34 -9 8 C-6.36 7.67 -3.72 7.34 -1 7 C-0.67 4.69 -0.34 2.38 0 0 Z " fill="#B4B4B4" transform="translate(567,149)"/>
<path d="M0 0 C0.33 0 0.66 0 1 0 C1.33 3.3 1.66 6.6 2 10 C1.01 10.495 1.01 10.495 0 11 C-0.19406478 9.35492782 -0.38007935 7.70890406 -0.5625 6.0625 C-0.66691406 5.14597656 -0.77132812 4.22945313 -0.87890625 3.28515625 C-0.91886719 2.53105469 -0.95882812 1.77695313 -1 1 C-0.67 0.67 -0.34 0.34 0 0 Z " fill="#AFAFAF" transform="translate(35,121)"/>
<path d="M0 0 C1.74627478 2.61941217 2.38722388 4.03824877 3 7 C2.01 6.67 1.02 6.34 0 6 C-0.33 6.99 -0.66 7.98 -1 9 C-1.09765625 2.84765625 -1.09765625 2.84765625 -1 1 C-0.67 0.67 -0.34 0.34 0 0 Z " fill="#B5B5B5" transform="translate(448,78)"/>
<path d="M0 0 C0 0.66 0 1.32 0 2 C-2.95664519 3.4783226 -5.74229737 3.06032783 -9 3 C-7.14340032 -0.71319936 -3.69365381 -0.09982848 0 0 Z " fill="#B1B1B2" transform="translate(508,109)"/>
<path d="M0 0 C0.99 0 1.98 0 3 0 C2.34 2.64 1.68 5.28 1 8 C-0.42944945 5.64561267 -1.08661261 4.51967567 -0.625 1.75 C-0.41875 1.1725 -0.2125 0.595 0 0 Z " fill="#A2A2A2" transform="translate(323,103)"/>
</svg>
